<svg width="200" height="61" viewBox="0 0 200 61" fill="none" xmlns="http://www.w3.org/2000/svg"><path d="M116.707.707H79.885l7.63 6.84-12.027 30.522 29.684.01c7.885 0 10.429-1.696 12.956-9.075 1.14-4.82.665-8.009-3.576-9.915 6.137-.735 7.496-5.036 9.103-9.427 2.031-6.333-1.102-8.955-6.95-8.955h.002Zm-9.208 22.963-2.021 5.204a2.315 2.315 0 0 1-1.999 1.378H89.953l3.137-7.96h13.478c.81.003 1.22.618.931 1.378Zm5.147-13.896-1.789 4.59a2.297 2.297 0 0 1-1.992 1.37H95.592l2.075-5.432-1.9-1.923 15.96.014c.796.009 1.212.619.919 1.38ZM.022 51.984h4.193c1.026 0 1.752.257 2.23.724a1.843 1.843 0 0 1 .525 1.33v.023c0 .95-.538 1.507-1.261 1.822.993.327 1.624.887 1.624 1.997v.023c0 1.402-1.14 2.255-3.095 2.255H.022v-8.174Zm4.718 2.523c0-.456-.361-.7-1.028-.7H2.23v1.436h1.425c.687 0 1.085-.234 1.085-.713v-.023Zm-.783 2.324H2.23v1.507H3.98c.7 0 1.085-.27 1.085-.749v-.023c0-.442-.35-.735-1.11-.735Zm6.19-.741v-.025c0-2.346 1.9-4.25 4.414-4.25 2.513 0 4.39 1.881 4.39 4.227v.023c0 2.349-1.9 4.253-4.413 4.253-2.514 0-4.391-1.876-4.391-4.228Zm6.48 0v-.025c0-1.191-.839-2.206-2.09-2.206-1.25 0-2.078 1.004-2.078 2.183v.023c0 1.18.853 2.208 2.102 2.208 1.248 0 2.067-1 2.067-2.183Zm5.661-4.106h2.28v8.17h-2.28v-8.17Zm5.307 6.956 1.261-1.505c.748.623 1.687.97 2.66.98.62 0 .95-.21.95-.56v-.025c0-.35-.268-.524-1.39-.792-1.758-.393-3.088-.885-3.088-2.555v-.023c0-1.52 1.203-2.617 3.165-2.617 1.39 0 2.47.38 3.363 1.087l-1.14 1.6a4.004 4.004 0 0 0-2.28-.806c-.549 0-.819.223-.819.527v.023c0 .38.282.537 1.425.794 1.87.408 3.04 1.016 3.04 2.546v.023c0 1.67-1.318 2.66-3.304 2.66-1.46.002-2.827-.453-3.843-1.357ZM38.01 51.984h6.574V53.9h-4.332v1.25h3.924v1.786h-3.924v1.296h4.391v1.929H38.01v-8.176ZM52.498 58.94l1.26-1.505a4.242 4.242 0 0 0 2.66.98c.617 0 .95-.21.95-.56v-.025c0-.35-.268-.524-1.39-.792-1.74-.397-3.083-.89-3.083-2.56v-.022c0-1.52 1.203-2.616 3.165-2.616 1.39 0 2.47.38 3.363 1.086l-1.14 1.6a4.009 4.009 0 0 0-2.28-.805c-.549 0-.816.222-.816.526v.023c0 .38.28.537 1.425.794 1.867.408 3.04 1.017 3.04 2.546v.023c0 1.67-1.321 2.66-3.305 2.66-1.46.005-2.827-.449-3.849-1.353Zm12.28-4.97h-2.44v-1.986h7.16v1.986h-2.454v6.19h-2.266v-6.19ZM74.378 51.93h2.183l3.487 8.232h-2.436l-.583-1.473h-3.166l-.583 1.473H70.91l3.47-8.233Zm1.986 4.996-.912-2.312-.914 2.312h1.826ZM83.894 53.97h-2.44v-1.986h7.157v1.986h-2.45v6.19h-2.267v-6.19ZM91.581 51.984h6.574V53.9h-4.332v1.25h3.924v1.786h-3.924v1.296h4.39v1.929h-6.632v-8.176ZM106.599 56.577v-4.59h2.28v4.542c0 1.18.594 1.74 1.506 1.74s1.52-.537 1.52-1.681v-4.602h2.28v4.532c0 2.627-1.504 3.8-3.83 3.8s-3.756-1.186-3.756-3.741ZM117.811 51.984h2.112l3.363 4.32v-4.32h2.242v8.17h-1.97l-3.504-4.486v4.486h-2.242l-.001-8.17Zm11.447 0h2.267v8.17h-2.267v-8.17Zm5.159 0h2.523l1.856 5.174 1.862-5.174h2.47l-3.315 8.233h-2.092l-3.304-8.233Zm11.561 0h6.576V53.9h-4.334v1.25h3.924v1.786h-3.924v1.296h4.391v1.929h-6.633v-8.176Zm10.102 0h3.865c1.25 0 2.115.327 2.66.876a2.55 2.55 0 0 1 .724 1.9v.023c0 1.261-.667 2.09-1.682 2.523l1.95 2.85h-2.603l-1.648-2.47h-1.005v2.47h-2.261v-8.172Zm3.768 3.916c.76 0 1.214-.38 1.214-.969v-.023c0-.653-.479-.98-1.225-.98h-1.496V55.9h1.507Zm6.171 3.04 1.262-1.505a4.23 4.23 0 0 0 2.66.98c.617 0 .95-.21.95-.56v-.025c0-.35-.268-.524-1.389-.792-1.74-.397-3.084-.89-3.084-2.56v-.022c0-1.52 1.205-2.616 3.166-2.616 1.39 0 2.47.38 3.363 1.086l-1.14 1.6a4.008 4.008 0 0 0-2.28-.805c-.548 0-.817.222-.817.526v.023c0 .38.281.537 1.425.794 1.867.408 3.04 1.017 3.04 2.546v.023c0 1.67-1.321 2.66-3.304 2.66-1.473.005-2.837-.449-3.852-1.353Zm10.464-6.956h2.264v8.17h-2.264v-8.17Zm7.685 1.986h-2.441v-1.986h7.157v1.986h-2.451v6.19h-2.265v-6.19Zm10.439 3.129-3.118-5.115h2.58l1.681 2.98 1.695-2.98h2.533l-3.105 5.08v3.096h-2.266v-3.061Z" /></svg>
