<svg width="188" height="60" viewBox="0 0 188 60" fill="none" xmlns="http://www.w3.org/2000/svg"><path d="M180.206 47.55h-2.958v11.4h3.027v-6.453c0-1.562.98-2.628 2.32-2.628a1.906 1.906 0 0 1 1.89 1.286c.089.26.121.534.093.806v7.017h3.027v-7.461c0-2.497-1.579-4.281-3.944-4.281a3.72 3.72 0 0 0-3.386 1.875h-.069V47.55Zm-10.334 9.444c-1.869 0-2.895-1.487-2.895-3.716s1.026-3.745 2.895-3.745c1.87 0 2.884 1.516 2.884 3.745s-1.048 3.716-2.895 3.716h.011Zm-.011 2.32a6.046 6.046 0 0 0 5.639-3.675 6.042 6.042 0 1 0-11.601-2.361 5.808 5.808 0 0 0 5.973 6.036h-.011ZM159.47 45.771h3.026v-2.719h-3.026v2.719Zm0 13.207h3.026v-11.4h-3.026v11.4Zm-8.066-9.422h1.579v6.703c0 2.166 1.63 2.742 3.101 2.742 1.203 0 1.892-.046 1.892-.046v-2.223h-.895a.996.996 0 0 1-1.14-1.14v-6.036h1.995v-2.007h-1.96v-3.562h-2.964v3.562h-1.579l-.029 2.007Zm-6.578 7.575c-1.071 0-1.784-.382-1.784-1.448 0-1.066.781-1.425 2.36-1.784a8.372 8.372 0 0 0 2.121-.667v1.71c0 1.14-.958 2.183-2.697 2.183v.006Zm3.027 1.841h2.919v-.108c-.268-.2-.399-.713-.399-1.585v-5.808c0-2.673-1.38-4.212-4.811-4.212-3.432 0-4.834 1.761-4.925 3.767h2.696c.086-1.094.781-1.601 2.206-1.601 1.271 0 1.915.53 1.915 1.356 0 .827-.866 1.026-2.764 1.294-2.537.354-4.589 1.14-4.589 3.677 0 2.28 1.647 3.494 3.99 3.494 1.961 0 2.782-.667 3.363-1.534h.046c.025.443.145.875.353 1.266v-.006Zm-12.181-13.201h3.033v-2.719h-3.033v2.719Zm0 13.207h3.033v-11.4h-3.033v11.4Zm-6.458.336c3.05 0 4.948-1.938 5.13-4.366h-2.918a2.136 2.136 0 0 1-2.28 1.938c-1.847 0-2.719-1.448-2.719-3.608s.935-3.608 2.764-3.608a2.085 2.085 0 0 1 2.092 1.755h2.964c-.399-2.473-2.228-4.19-5.192-4.19-3.472 0-5.7 2.634-5.7 6.043 0 3.409 2.251 6.036 5.859 6.036Zm-12.677-2.32c-1.869 0-2.895-1.487-2.895-3.716s1.026-3.745 2.895-3.745c1.87 0 2.896 1.516 2.896 3.745s-1.049 3.716-2.896 3.716Zm0 2.32a6.044 6.044 0 0 0 6.002-7.18 6.034 6.034 0 0 0-4.733-4.783 6.04 6.04 0 0 0-7.242 5.927 5.805 5.805 0 0 0 3.645 5.623 5.81 5.81 0 0 0 2.328.413Zm-11.696 0c2.85 0 4.811-1.38 4.811-3.676 0-2.674-2.115-3.21-4.03-3.608-1.63-.337-3.141-.422-3.141-1.403 0-.826.775-1.27 1.961-1.27 1.288 0 2.069.444 2.206 1.67h2.736c-.222-2.28-1.893-3.791-4.902-3.791-2.605 0-4.651 1.186-4.651 3.654s2 3.055 4.052 3.454c1.556.313 3.01.427 3.01 1.516 0 .804-.758 1.317-2.098 1.317-1.339 0-2.28-.57-2.496-1.898h-2.805c.177 2.433 2.03 4.035 5.347 4.035Zm-10.83 0c2.85 0 4.817-1.38 4.817-3.676 0-2.674-2.12-3.21-4.036-3.608-1.625-.337-3.14-.422-3.14-1.403 0-.826.78-1.27 1.96-1.27 1.294 0 2.07.444 2.206 1.67h2.742c-.223-2.28-1.898-3.791-4.902-3.791-2.611 0-4.657 1.186-4.657 3.654s2.006 3.055 4.052 3.454c1.562.313 3.01.427 3.01 1.516 0 .804-.758 1.317-2.092 1.317s-2.28-.57-2.497-1.898h-2.81c.183 2.433 2.03 4.035 5.347 4.035ZM80.417 48.53c.267-.844.666-2.451.666-2.451h.046s.382 1.607.65 2.45l1.425 4.56h-4.212l1.424-4.56Zm-6.499 10.448h3.272l1.049-3.386h5.751l1.066 3.386h3.34l-5.614-15.926h-3.34l-5.523 15.926ZM150.306 37.97h3.033V22.044h-3.033V37.97Zm-7.507-1.835c-1.066 0-1.778-.382-1.778-1.448 0-1.066.775-1.425 2.36-1.784a8.318 8.318 0 0 0 2.114-.667v1.71c0 1.14-.957 2.183-2.696 2.183v.006Zm3.033 1.84h2.918v-.13c-.268-.2-.399-.713-.399-1.585v-5.797c0-2.673-1.385-4.212-4.816-4.212-3.341 0-4.834 1.761-4.925 3.767h2.696c.091-1.094.781-1.601 2.206-1.601 1.271 0 1.915.53 1.915 1.356 0 .827-.866 1.026-2.759 1.294-2.542.354-4.588 1.14-4.588 3.677 0 2.28 1.647 3.494 3.99 3.494 1.961 0 2.787-.667 3.363-1.54h.045c.029.446.151.879.359 1.272l-.005.006Zm-15.385-9.427h1.585v6.703c0 2.166 1.625 2.742 3.095 2.742 1.203 0 1.893-.046 1.893-.046v-2.223h-.89a1.003 1.003 0 0 1-1.14-1.14v-6.036h1.961v-2.006h-1.961v-3.563h-2.958v3.563h-1.585v2.006Zm-4.309-3.813h3.027v-2.69h-3.027v2.69Zm0 13.212h3.027v-11.4h-3.027v11.4Zm-6.999-2.183c-1.802 0-2.759-1.357-2.759-3.42 0-2.063.758-3.676 2.65-3.676 1.893 0 2.628 1.516 2.628 3.676s-.98 3.42-2.519 3.42Zm-5.7 5.928h3.032v-4.987h.04a3.675 3.675 0 0 0 3.3 1.624c2.941 0 4.948-2.337 4.948-6.036 0-3.568-1.944-6.042-4.971-6.042a3.99 3.99 0 0 0-3.363 1.738h-.068v-1.425h-2.918v15.128Zm-6.173-3.42c2.85 0 4.816-1.38 4.816-3.676 0-2.674-2.12-3.21-4.036-3.608-1.624-.337-3.14-.422-3.14-1.403 0-.826.781-1.27 1.961-1.27 1.293 0 2.069.444 2.205 1.67h2.742c-.222-2.28-1.898-3.791-4.902-3.791-2.605 0-4.657 1.185-4.657 3.654 0 2.468 2.007 3.055 4.053 3.454 1.562.313 3.01.427 3.01 1.516 0 .804-.759 1.317-2.092 1.317-1.334 0-2.28-.57-2.497-1.898h-2.833c.183 2.428 2.029 4.035 5.347 4.035h.023Zm-12.027-2.32c-1.876 0-2.896-1.487-2.896-3.716s1.02-3.745 2.896-3.745c1.875 0 2.895 1.516 2.895 3.745s-1.049 3.716-2.895 3.716Zm0 2.32a5.808 5.808 0 0 0 5.967-6.036 5.967 5.967 0 0 0-3.642-5.686 5.975 5.975 0 0 0-8.299 5.686 5.809 5.809 0 0 0 5.974 6.036Zm-20.344-.336h3.232v-6.983h6.27v7.017h3.25V22.044h-3.233v6.236h-6.27v-6.236h-3.232l-.017 15.892ZM160.479 15.075c-1.071 0-1.784-.382-1.784-1.447 0-1.066.781-1.425 2.36-1.785a8.245 8.245 0 0 0 2.115-.666v1.71c0 1.111-.958 2.183-2.691 2.183v.005Zm3.038 1.847h2.919v-.108c-.268-.2-.399-.713-.399-1.585V9.415c0-2.673-1.385-4.212-4.811-4.212s-4.839 1.761-4.925 3.768h2.696c.086-1.095.775-1.608 2.206-1.608 1.265 0 1.915.536 1.915 1.362 0 .827-.872 1.027-2.764 1.294-2.537.354-4.589 1.14-4.589 3.677 0 2.28 1.648 3.494 3.99 3.494 1.961 0 2.782-.667 3.363-1.539h.046c.024.445.145.878.353 1.271ZM151.319 3.71h3.033V.997h-3.033V3.71Zm0 13.213h3.033v-11.4h-3.033v11.4Zm-9.08-11.4h-2.964v11.4h3.033v-6.48c0-1.563.98-2.628 2.314-2.628a1.899 1.899 0 0 1 1.983 2.091v7.017h3.027V9.461c0-2.497-1.579-4.28-3.939-4.28a3.706 3.706 0 0 0-3.385 1.874h-.069V5.522Zm-7.866 0h-2.918v11.4h3.032V11.37c0-2.405 1.425-3.454 3.42-3.254h.063V5.448a2.077 2.077 0 0 0-.713-.086c-1.333 0-2.114.667-2.804 1.961h-.068l-.012-1.8Zm-10.294 9.416c-1.87 0-2.896-1.487-2.896-3.716s1.026-3.745 2.896-3.745c1.87 0 2.901 1.516 2.901 3.745s-1.049 3.716-2.901 3.716Zm0 2.32a5.81 5.81 0 0 0 5.974-6.036 5.986 5.986 0 0 0-1.682-4.343 5.975 5.975 0 0 0-10.26 4.343 5.802 5.802 0 0 0 5.968 6.036Zm-13.11-9.69h1.562v9.354h3.026v-9.33h2.052V5.493h-2.052V4.65c0-1.186.627-1.362 2.052-1.294V1.02c-2.918-.313-5.078.667-5.078 3.449v1.026h-1.562v2.074Zm-4.321-3.881h3.033V.997h-3.033v2.69Zm0 13.212h3.033V5.5h-3.033v11.4Zm-5.033 0h3.027V.996h-3.027V16.9Zm-7.5-1.824c-1.067 0-1.78-.382-1.78-1.447 0-1.066.782-1.425 2.36-1.785a8.242 8.242 0 0 0 2.132-.666v1.71c0 1.111-.957 2.183-2.696 2.183l-.017.005Zm3.049 1.841h2.918v-.108c-.268-.2-.399-.712-.399-1.585V9.415c0-2.673-1.385-4.212-4.817-4.212-3.34 0-4.833 1.761-4.919 3.768h2.697c.068-1.095.763-1.59 2.188-1.59 1.266 0 1.916.535 1.916 1.362 0 .826-.873 1.026-2.765 1.293-2.542.354-4.56 1.14-4.56 3.677 0 2.28 1.647 3.494 3.99 3.494 1.96 0 2.787-.667 3.369-1.539h.04c.028.445.15.878.359 1.271l-.017-.023Zm-15.202.36a6.743 6.743 0 0 0 4.839-1.71 5.632 5.632 0 0 0 1.756-3.768h-3.164c-.2 1.67-1.533 2.81-3.42 2.81-2.673 0-4.366-2.343-4.366-5.592 0-3.163 1.408-5.614 4.349-5.614 1.87 0 3.072 1.043 3.363 2.65h3.21c-.337-3.032-2.657-5.37-6.573-5.37-4.703 0-7.644 3.609-7.644 8.334 0 4.726 3.135 8.242 7.615 8.242M37.105 59.081h21.136V23.616c-4.709 2.08-15.436 10.442-21.136 35.465ZM39.699.941H.083v58.14h1.5c7.774-21.21 25.41-32.797 36.229-35.687v-9.747h3.511v9.747c-4.218.752-25.245 9.747-34.593 35.687h5.067c6.715-21.13 21.232-32.535 31.977-35.687v-9.747h3.505v9.747c-4.218.752-21.865 9.747-30.238 35.687h5.472c5.74-20.799 17.322-31.515 27.195-35.687v-9.747h3.51v9.747c-4.377 1.664-18.81 9.787-25.723 35.687h4.708c5.176-21.352 15.19-31.589 23.068-35.687v-9.747h2.975V11.84H35.543V9.263h22.703V7.388h-2.964a32.266 32.266 0 0 1 1.403-6.47h-2.218a32.55 32.55 0 0 0-1.322 6.47h-3.42c.241-2.2.711-4.367 1.402-6.47h-2.234a28.972 28.972 0 0 0-1.67 6.47h-3.42c.25-2.216.786-4.391 1.596-6.47h-2.28a23.996 23.996 0 0 0-1.842 6.47h-3.42c.257-2.243.881-4.429 1.847-6.47" fill="#000"/></svg>
