<svg width="135" height="60" viewBox="0 0 135 60" fill="none" xmlns="http://www.w3.org/2000/svg"><path fill-rule="evenodd" clip-rule="evenodd" d="M0 60V0h135v60H0Zm53.25-31.275v-9.6h3.45v21.9h-3.45V31.5H39.9V41.025h-3.45V19.2h3.45v9.525h13.35Zm16.087 1.538L79.95 40.95h-.075l.075.075H75.6L65.029 30.379l-.004-.004L76.35 19.2h4.05L69.337 30.263Zm29.288 4.695v.067c-.075 3.525-3.45 6.375-9.75 6.375-6.41 0-9.925-2.968-9.904-7.197-.001-.1 0-.201.004-.303h3c.15 3.9 3.45 4.95 6.9 4.95 3.975 0 6.45-1.2 6.45-3.75a2.832 2.832 0 0 0-1.275-2.55c-1.24-.73-2.977-1.033-5.833-1.533l-.242-.042c-2.925-.525-5.1-1.125-6.375-2.1a4.492 4.492 0 0 1-1.805-3.636c-.001-.087 0-.175.005-.264 0-4.425 4.05-6.375 8.925-6.375 5.7 0 9.15 2.4 9.15 6.675v.075h-3.15c-.075-3.45-2.625-4.275-6-4.275-3.9 0-5.85 1.275-5.85 3.6a2.284 2.284 0 0 0-.01.17c.013.727.378 1.375.985 1.78.9.675 2.925 1.125 6.15 1.725 3.225.6 5.025 1.05 6.3 1.875 1.575.975 2.325 2.25 2.325 4.725v.008ZM59.85 19.2h3.45v21.75h-3.45V19.2Z" fill="#000"/></svg>
