<svg width="278" height="60" viewBox="0 0 278 60" fill="none" xmlns="http://www.w3.org/2000/svg"><path d="M115.712 12.288v35.424h-6.15V19.914h-.082L98.492 47.712h-4.1L83.158 19.914h-.082v27.798h-5.658V12.288h8.856l10.168 26.24h.164l10.742-26.24h8.364Zm5.084 2.706c0-.984.328-1.804 1.066-2.46.738-.656 1.558-.984 2.542-.984 1.066 0 1.968.328 2.624.984.656.656 1.066 1.476 1.066 2.46s-.328 1.804-1.066 2.46c-.738.656-1.558.984-2.624.984s-1.886-.328-2.542-.984c-.656-.738-1.066-1.558-1.066-2.46Zm6.642 7.298v25.42h-5.986v-25.42h5.986Zm18.122 21.074c.902 0 1.886-.164 2.952-.656 1.066-.41 2.05-.984 2.952-1.64v5.576c-.984.574-2.05.984-3.28 1.23s-2.542.41-4.018.41c-3.772 0-6.806-1.148-9.102-3.526-2.378-2.378-3.526-5.412-3.526-9.02 0-4.1 1.23-7.462 3.608-10.086 2.378-2.624 5.74-3.936 10.168-3.936 1.148 0 2.296.164 3.362.41 1.148.246 2.05.656 2.706.984v5.74c-.902-.656-1.886-1.23-2.788-1.558-.984-.328-1.968-.574-2.952-.574-2.378 0-4.264.738-5.74 2.296-1.476 1.558-2.132 3.608-2.132 6.232 0 2.542.738 4.592 2.132 5.986 1.394 1.394 3.28 2.132 5.658 2.132Zm22.878-21.484c.492 0 .902 0 1.312.082.41.082.738.164.984.246v6.068a3.677 3.677 0 0 0-1.394-.656c-.656-.164-1.312-.328-2.214-.328-1.476 0-2.706.656-3.69 1.886s-1.558 3.116-1.558 5.74v12.792h-5.986v-25.42h5.986v4.018h.082c.574-1.394 1.394-2.46 2.46-3.28 1.148-.738 2.46-1.148 4.018-1.148Zm2.624 13.53c0-4.182 1.23-7.544 3.526-10.004 2.378-2.46 5.658-3.69 9.84-3.69 3.936 0 7.052 1.148 9.266 3.526 2.214 2.378 3.362 5.576 3.362 9.594 0 4.1-1.23 7.38-3.526 9.84-2.378 2.46-5.576 3.69-9.676 3.69-3.936 0-7.052-1.148-9.348-3.444-2.296-2.378-3.444-5.576-3.444-9.512Zm6.232-.246c0 2.624.574 4.674 1.804 6.068 1.23 1.394 2.952 2.132 5.166 2.132 2.132 0 3.854-.656 5.002-2.132 1.148-1.394 1.722-3.444 1.722-6.232 0-2.706-.574-4.756-1.722-6.232-1.148-1.394-2.87-2.132-4.92-2.132-2.214 0-3.854.738-5.084 2.214-1.394 1.558-1.968 3.608-1.968 6.314Zm28.7-6.15c0 .82.246 1.558.82 2.05.574.492 1.722 1.066 3.608 1.804 2.378.984 4.1 2.05 5.002 3.198.984 1.23 1.476 2.624 1.476 4.346 0 2.378-.902 4.264-2.788 5.74-1.804 1.476-4.346 2.132-7.462 2.132-1.066 0-2.214-.164-3.526-.41-1.312-.246-2.378-.574-3.28-.984v-5.904c1.066.738 2.296 1.394 3.526 1.804 1.23.41 2.378.656 3.444.656 1.312 0 2.378-.164 2.952-.574.656-.41.984-.984.984-1.886 0-.82-.328-1.476-.984-2.132-.656-.574-1.968-1.23-3.772-1.968-2.214-.902-3.772-1.968-4.674-3.116-.902-1.148-1.394-2.624-1.394-4.428 0-2.296.902-4.182 2.706-5.658 1.804-1.476 4.182-2.214 7.052-2.214.902 0 1.886.082 2.952.328s2.05.492 2.788.738v5.822c-.82-.492-1.722-.984-2.788-1.394a8.68 8.68 0 0 0-3.116-.574c-1.148 0-2.05.246-2.624.656-.574.574-.902 1.148-.902 1.968Zm13.448 6.396c0-4.182 1.23-7.544 3.526-10.004 2.378-2.46 5.658-3.69 9.84-3.69 3.936 0 7.052 1.148 9.266 3.526 2.214 2.378 3.362 5.576 3.362 9.594 0 4.1-1.23 7.38-3.526 9.84-2.378 2.46-5.576 3.69-9.676 3.69-3.936 0-7.052-1.148-9.348-3.444-2.214-2.378-3.444-5.576-3.444-9.512Zm6.232-.246c0 2.624.574 4.674 1.804 6.068 1.23 1.394 2.952 2.132 5.166 2.132 2.132 0 3.854-.656 5.002-2.132 1.148-1.394 1.722-3.444 1.722-6.232 0-2.706-.574-4.756-1.722-6.232-1.148-1.394-2.87-2.132-4.92-2.132-2.214 0-3.854.738-5.084 2.214-1.312 1.558-1.968 3.608-1.968 6.314Zm39.688-7.954h-8.938v20.5h-6.068v-20.5h-4.264v-4.92h4.264v-3.526c0-2.624.902-4.838 2.624-6.56 1.722-1.722 3.936-2.542 6.642-2.542.738 0 1.394.082 1.968.082.574 0 1.066.164 1.476.328v5.166a9.994 9.994 0 0 0-1.066-.41c-.492-.164-1.066-.246-1.722-.246-1.23 0-2.214.41-2.87 1.148-.656.738-.984 1.968-.984 3.444v3.034h8.938v-5.74l5.986-1.804v7.544h6.068v4.92h-6.068v11.89c0 1.558.328 2.624.82 3.28.574.656 1.476.984 2.706.984.328 0 .738-.082 1.23-.246.492-.164.902-.328 1.23-.574v4.92c-.41.246-.984.41-1.886.574a14.21 14.21 0 0 1-2.624.246c-2.542 0-4.428-.656-5.658-1.968-1.23-1.312-1.886-3.362-1.886-6.068l.082-12.956Z" /><path d="M.584 28.524V.48h28.044v28.044H.584Z" /><path d="M31.58 28.524V.48h28.044v28.044H31.58Z" /><path d="M.584 59.52V31.476h28.044V59.52H.584Z" /><path d="M31.58 59.52V31.476h28.044V59.52H31.58Z" /></svg>
