<svg width="230" height="54" viewBox="0 0 230 54" fill="none" xmlns="http://www.w3.org/2000/svg"><path fill-rule="evenodd" clip-rule="evenodd" d="m29.41.5-8.517 24.775L12.375.5H.5v2.39h4.842v31.508H.5v2.39h12.078V34.4H7.733V2.742l11.83 34.096 11.87-34.426v31.986h-5.66v2.39h16.41V34.4h-5.656V2.89h5.657V.5H29.41Zm61.194 0-8.518 24.773L73.568.5H61.692v2.39h4.843v31.508h-4.843v2.39H73.77V34.4h-4.844V2.742l11.828 34.096L92.626 2.412v31.986h-5.658v2.39h16.41V34.4H97.72V2.89h5.658V.5H90.604ZM43.672.5v2.39h5.656V34.4h-5.656v2.39h16.41V34.4h-5.66V2.89h5.66V.5" /><path fill-rule="evenodd" clip-rule="evenodd" d="M109.475 35.1c0 .938-.758 1.696-1.697 1.696-.94 0-1.698-.758-1.698-1.696 0-.943.758-1.7 1.698-1.7s1.697.76 1.697 1.7Zm-3.22 0c0 .856.662 1.545 1.528 1.545.867 0 1.52-.693 1.52-1.552 0-.866-.65-1.543-1.52-1.543-.875 0-1.53.673-1.53 1.55h.002Zm.905-1.006h.754c.454 0 .654.19.654.554 0 .326-.232.483-.518.53l.6.92h-.19l-.604-.925h-.522v.926h-.174V34.09v.004Zm.174.93h.427c.31 0 .64-.03.64-.38 0-.308-.26-.4-.5-.4h-.56v.78h-.007Z" fill="#221F20"/><path fill-rule="evenodd" clip-rule="evenodd" d="M7.71 52.888V46.72c-.063.435-.05.498-.32 1.2l-1.92 4.968H4.027l-1.757-4.88c-.177-.484-.19-.624-.318-1.338v6.218H.5V44.48h1.924l2.242 6c.09.24.126.33.165.65.06-.395.08-.446.16-.65l2.33-6h1.92v8.408H7.71Zm11.2-.448c-.61.422-1.324.614-2.37.614-1.056 0-1.744-.18-2.38-.613-.867-.59-1.147-1.3-1.147-2.84v-5.12h1.592v5.21c0 1.25.65 1.88 1.988 1.88 1.222 0 1.87-.66 1.87-1.87v-5.21h1.606v5.12c0 1.54-.28 2.23-1.16 2.84l.001-.011Zm13.41.448h1.603V44.48H32.32v8.408Zm11.248-6.485c-.548-.395-1.197-.586-1.936-.586-1.618 0-2.776 1.146-2.776 2.74 0 1.808 1.197 2.993 3.03 2.993.6 0 1.097-.1 1.848-.395l.293 1.35c-.536.242-.752.32-1.134.408-.407.09-.854.14-1.35.14-1.312 0-2.255-.33-3.044-1.045-.9-.802-1.42-2.05-1.42-3.363 0-1.223.46-2.33 1.28-3.147.84-.828 1.78-1.172 3.17-1.172 1.07 0 1.91.255 2.64.803l-.62 1.27.019.004Zm6.652 0-.968 3.045h1.95l-.98-3.045h-.002Zm2.077 6.485-.662-2.077H48.82l-.688 2.08h-1.68l3.042-8.41h1.44l3.045 8.41h-1.69l.008-.003Zm4.473 0V44.48h1.606v7.045h3.44v1.363H56.77Zm13.01 0h1.606V44.48H69.78v8.408Zm10.995.076-3.604-5.44-.28-.51a1.414 1.414 0 0 1-.11-.293v6.17h-1.53v-8.41h1.85l3.4 5.33c.24.39.35.65.45.92v-6.24h1.52v8.49h-1.68l-.016-.017Zm10.47-6.404c-.89-.396-1.617-.6-2.18-.6-.75 0-1.233.306-1.233.777 0 .356.204.573.803.892 1.286.68 2.127 1.22 2.522 1.61.356.35.573.92.573 1.5 0 1.5-1.095 2.38-2.955 2.38-.256 0-.51-.02-.752-.05-.598-.08-.878-.18-1.758-.59l-.547-.26.675-1.48c.61.33.866.46 1.198.58.42.15.88.24 1.21.24.74 0 1.23-.33 1.23-.84 0-.36-.19-.6-.74-.91l-1.29-.74c-1.49-.86-1.95-1.42-1.95-2.33 0-.42.13-.85.33-1.17.14-.22.36-.44.63-.63.62-.42 1.14-.56 2.12-.56.56 0 1.06.06 1.58.21.41.12.64.21 1.2.48l-.63 1.44-.036.051Zm-62.89 0c-.892-.396-1.62-.6-2.18-.6-.75 0-1.235.306-1.235.777 0 .356.205.573.803.892 1.286.68 2.127 1.22 2.522 1.61.357.35.573.92.573 1.5 0 1.5-1.095 2.38-2.955 2.38-.255 0-.51-.02-.752-.05-.59-.08-.87-.18-1.75-.59l-.55-.26.68-1.48c.62.33.87.46 1.2.58.42.15.88.24 1.21.24.74 0 1.22-.33 1.22-.84 0-.36-.19-.6-.74-.91l-1.3-.74c-1.49-.86-1.95-1.42-1.95-2.33 0-.42.13-.85.33-1.17.14-.22.36-.44.63-.63.61-.42 1.14-.57 2.12-.57.56 0 1.06.07 1.58.22.41.13.64.21 1.2.48l-.63 1.44-.026.051Zm69.967-.717v7.045h-1.605v-7.045h-2.522V44.48h6.65v1.363h-2.523Zm8.003 0h-1.045v2.32h1.045c1.02 0 1.465-.36 1.465-1.2 0-.802-.42-1.12-1.465-1.12Zm1.68 7.045-1.923-3.363h-.802v3.363h-1.605V44.48h2.802c1.223 0 1.784.152 2.28.623.46.42.688 1.033.688 1.823 0 .65-.152 1.17-.46 1.58-.316.407-.61.585-1.31.776l2.09 3.606h-1.76Zm10.5-.448c-.61.422-1.324.614-2.37.614-1.055 0-1.743-.18-2.38-.613-.866-.59-1.146-1.3-1.146-2.84v-5.12h1.59v5.21c0 1.25.65 1.88 1.98 1.88 1.22 0 1.87-.66 1.87-1.87v-5.21h1.6v5.12c0 1.54-.28 2.23-1.16 2.84l.016-.011Zm12.114.461v-6.17c-.06.44-.05.5-.32 1.2l-1.93 4.97h-1.44l-1.76-4.88c-.18-.48-.19-.62-.32-1.34v6.22h-1.45v-8.41h1.92l2.24 6c.09.24.13.33.16.65.05-.39.07-.44.15-.65l2.33-6h1.92v8.41h-1.53.03Zm5.43 0v-8.41h5.12v1.37h-3.52v2.08h2.88v1.36h-2.88v2.25h3.68v1.36l-5.28-.01Zm14.13.09-3.61-5.44-.28-.51c-.05-.1-.08-.15-.12-.29v6.17h-1.53V44.5h1.861l3.4 5.325c.24.388.34.65.445.92V44.5h1.513v8.485h-1.68l.001.006Zm8.69-7.12v7.04h-1.61v-7.05h-2.52v-1.37h6.65v1.37l-2.52.01Zm17.81 7.04v-6.17c-.07.44-.05.5-.32 1.2l-1.92 4.97h-1.44l-1.76-4.88c-.18-.48-.19-.62-.32-1.34v6.22H169.5V44.5h1.925l2.242 6c.09.24.127.33.166.65.05-.396.076-.447.152-.65l2.33-6h1.924v8.4h-1.53l-.03.011Zm11.2-.45c-.61.43-1.33.62-2.37.62-1.06 0-1.75-.18-2.38-.61-.87-.59-1.15-1.3-1.15-2.84V44.5h1.59v5.21c0 1.25.65 1.88 1.98 1.88 1.22 0 1.87-.66 1.87-1.87V44.5h1.603v5.12c0 1.54-.28 2.23-1.16 2.84l.017.001Zm9.573-5.961c-.89-.39-1.62-.6-2.18-.6-.75 0-1.234.31-1.234.78 0 .36.2.58.8.9 1.29.69 2.13 1.22 2.524 1.62.357.355.574.916.574 1.502 0 1.502-1.097 2.382-2.956 2.382-.255 0-.51-.01-.75-.05-.6-.074-.88-.18-1.757-.583l-.55-.25.67-1.48c.61.34.866.46 1.2.59.42.16.876.24 1.207.24.74 0 1.225-.33 1.225-.84 0-.35-.19-.6-.74-.9l-1.3-.74c-1.49-.85-1.95-1.41-1.95-2.33 0-.42.13-.85.33-1.17.14-.22.356-.43.62-.62.61-.42 1.137-.56 2.118-.56.56 0 1.054.07 1.58.22.403.13.634.22 1.193.488l-.6 1.41-.024-.009Zm3.837 6.41V44.5h5.12v1.37h-3.51v2.08h2.88v1.36h-2.88v2.242h3.68v1.36l-5.29-.002Zm14.24-.445c-.61.42-1.32.61-2.37.61s-1.74-.18-2.38-.613c-.862-.6-1.14-1.3-1.14-2.84V44.5h1.59v5.21c0 1.25.65 1.87 1.99 1.87 1.22 0 1.87-.663 1.87-1.873v-5.21h1.605v5.12c0 1.54-.28 2.23-1.16 2.84l-.005.008Zm12.135.442v-6.17c-.06.436-.05.5-.32 1.2l-1.92 4.97h-1.44l-1.76-4.88c-.174-.484-.19-.624-.315-1.338v6.21h-1.454v-8.41h1.925l2.24 6c.09.24.13.33.17.65.05-.4.08-.45.15-.65l2.33-6h1.92v8.41h-1.53l.004.008Z" /></svg>
