<svg width="202" height="60" viewBox="0 0 202 60" fill="none" xmlns="http://www.w3.org/2000/svg"><path d="M188.835 21.31c-1.21 0-2.31.99-2.31 2.2 0 1.32.99 2.31 2.31 2.31 1.21 0 2.31-.99 2.31-2.31 0-1.21-.99-2.2-2.31-2.2Zm.88 2.64c0 .33.11.55.11.88h-.44c0-.22-.11-.33-.11-.77s-.11-.55-.55-.55h-.44v1.21h-.33v-2.64h.88c.22 0 .99 0 .99.66 0 .11 0 .55-.55.66.33.11.33.22.44.55Zm-127.6.44-3.74 8.25h7.59l-3.74-8.25h-.11Z" fill="#000"/><path d="M188.835 22.41h-.55v.88h.55c.22 0 .55 0 .55-.44s-.33-.44-.55-.44Z" fill="#000"/><path d="M.625.52v58.96h200.75V.52H.625Zm27.39 39.27c-7.81 0-12.98-.11-12.98-6.38h7.81c0 1.98 1.1 2.2 5.17 2.2 3.85 0 5.06-.11 5.06-1.76s-.44-1.65-4.29-1.76l-1.76-.11c-7.59-.33-11.99-.33-11.99-5.72 0-5.5 4.95-5.83 12.98-5.83 6.71 0 12.43.11 12.43 5.28v.77h-7.92c0-1.98-1.32-1.98-4.62-1.98-4.4 0-4.73.55-4.73 1.65 0 1.54 1.21 1.54 3.3 1.65l3.52.22c9.02.44 11.33 1.1 11.33 5.5 0 3.19.22 6.27-13.31 6.27Zm41.14-.11-1.54-3.3h-11.11l-1.54 3.3h-8.47l9.24-19.03h12.43l9.35 19.03h-8.36Zm45.21-.11h-13.86l-8.69-14.63h-.33l.55 14.63h-8.14V20.54h13.75l8.8 14.63h.33l-.55-14.63h8.14v19.03Zm35.86-6.38c0 5.06-3.85 6.49-12.87 6.49-12.21 0-13.53-1.98-13.53-6.49V20.54h8.14v12.65c0 2.2 1.98 2.2 5.39 2.2 3.52 0 4.62-.22 4.62-2.42V20.54h8.25v12.65Zm21.34 6.6c-7.81 0-12.98-.11-12.98-6.38h7.81c0 1.98 1.1 2.2 5.17 2.2 3.85 0 5.06-.11 5.06-1.76s-.44-1.65-4.29-1.76l-1.76-.11c-7.59-.33-11.99-.33-11.99-5.72 0-5.5 4.95-5.83 12.98-5.83 6.71 0 12.43.11 12.43 5.28v.77h-7.81c0-1.98-1.32-1.98-4.62-1.98-4.4 0-4.73.55-4.73 1.65 0 1.54 1.21 1.54 3.3 1.65l3.41.22c9.02.44 11.33 1.1 11.33 5.5 0 3.19.22 6.27-13.31 6.27Zm17.27-13.75c-1.43 0-2.53-1.1-2.53-2.53 0-1.43 1.21-2.53 2.53-2.53 1.43 0 2.53 1.1 2.53 2.53 0 1.43-1.21 2.53-2.53 2.53Z" fill="#000"/></svg>
