<svg width="324" height="60" viewBox="0 0 324 60" fill="none" xmlns="http://www.w3.org/2000/svg"><path d="M56.999 6.525c-1.618 4.28-3.067 8.73-4.541 13.153H36.016c.535-1.827 1.853-5.468 0-6.89a5.218 5.218 0 0 0-6.42 5.324c.234 3.002 4.789 3.915 7.672 4.855 6.173 2.114 11.745 3.797 11.118 12.37-.47 6.525-4.45 13.05-7.83 16.599-4.266 4.489-11.235 7.555-19.416 7.986-8.182.43-16.52-.666-21.14-6.277 1.866-5.024 3.51-10.27 5.324-15.346H22.55c-.692 2.166-4.659 10.27 1.879 9.135 2.414-.444 4.893-4.215 4.384-7.36-.835-5.22-11.926-4.554-16.128-8.143-4.776-4.136-2.336-11.561-.157-16.65C16.442 5.977 23.945.73 35.86.09c9.37-.496 16.26.992 21.14 6.434Zm11.9-5.338h21.297c-.914 3.576-2.336 6.642-3.289 10.179-4.228 1.722-4.293 7.608-6.107 11.744a59.44 59.44 0 0 0 6.89.157c.77-3.667 4.62-8.3 2.036-11.901 1.083-3.458 2.31-6.773 3.445-10.179h21.453c-1.305 2.702-1.566 6.943-3.289 9.866-.456.783-2.035 1.605-2.609 2.61-1.227 2.087-1.893 5.389-2.819 8.142-2.336 6.968-4.372 13.206-6.89 20.357a20.427 20.427 0 0 0-1.41 3.915c0 .809.901 1.565.94 2.348.065 1.475-1.187 3.576-1.722 5.22a210.397 210.397 0 0 1-1.723 5.01H73.597c1.527-3.366 1.553-6.98 3.289-9.864.796-1.305 2.505-1.958 3.288-3.289 1.918-3.275 1.827-7.125 3.758-10.96h-7.046c-.679 1.591-1.305 3.653-2.036 5.793-1.083 3.04-2.819 6.185-.783 8.143-1.07 3.47-2.27 6.811-3.445 10.178H49.169c1.305-2.74 1.58-6.968 3.289-9.865.574-.979 2.14-1.762 2.818-3.132a78.263 78.263 0 0 0 2.61-7.986c1.788-5.024 3.667-10.44 5.48-15.816 1.175-3.497 3.498-7.633 1.88-10.335.952-3.432 2.218-6.524 3.288-9.865a.431.431 0 0 1 .365-.47Zm54.494 0h42.331c-1.983 6.682-4.41 12.92-6.524 19.418h-15.92c.222-1.853 1.67-3.693 1.096-5.638-.509-1.722-2.754-1.553-5.22-1.566-1.305 3.158-2.296 6.525-3.445 9.866 3.393.365 7.464 0 11.118.156-1.122 3.915-2.61 7.477-3.758 11.275h-11.118c-1.605 3.562-2.675 7.66-4.071 11.43 6.72 1.45 7.829-4.018 9.395-8.298h15.816c-2.388 6.955-4.75 13.936-7.203 20.878h-42.228c1.305-2.727 1.501-6.89 3.289-9.865.561-.927 2.062-1.54 2.818-2.819 1.214-2.061 1.749-5.298 2.61-7.986 1.866-5.467 3.576-10.139 5.481-15.815.822-2.467 2.61-5.872 2.61-7.986 0-1.07-.627-1.997-.627-2.976 0-3.184 2.689-6.341 3.132-9.552a.434.434 0 0 1 .233-.478.433.433 0 0 1 .185-.044Zm50.891 0h42.593c-2.01 6.656-4.398 12.932-6.525 19.418h-16.181c1.736-3.706 2.088-8.248-4.071-7.204-1.214 3.276-2.349 6.63-3.445 10.022h11.118c-1.083 3.915-2.505 7.517-3.758 11.275h-11.118c-1.566 3.601-2.61 7.686-4.071 11.43 6.642 1.37 7.986-3.914 9.395-8.298h16.129c-2.388 6.955-4.75 13.936-7.203 20.878h-42.593c.379-1.553 1.096-3.158 1.723-5.01.535-1.567.77-3.72 1.566-5.012.587-.952 2.283-1.683 2.975-2.975 1.226-2.283 1.761-5.22 2.61-7.986 2.192-6.616 4.371-12.788 6.733-19.73a21.273 21.273 0 0 0 1.409-3.758c0-1.031-.783-1.997-.783-2.976 0-1.605 1.057-3.327 1.566-4.854.509-1.527 1.07-3.066 1.566-4.698a.914.914 0 0 1 .365-.522Zm51.832 0h21.296C246.355 4.62 245.246 8 243.967 11.21c-3.915 2.075-4.306 7.595-5.95 11.901a56.7 56.7 0 0 0 6.733.157 17.461 17.461 0 0 0 1.722-4.698c.509-1.475 1.618-3.093 1.566-4.698 0-.913-1.044-1.722-1.096-2.61-.078-1.304 1.227-3.549 1.723-5.01.613-1.827 1.109-3.42 1.722-5.011h21.453a35.907 35.907 0 0 1-1.723 4.958c-.561 1.631-.73 3.72-1.565 5.011-.522.81-2.18 1.488-2.819 2.61-1.214 2.218-1.723 5.441-2.61 8.143a1302.507 1302.507 0 0 0-6.89 20.043c-.887 2.61-2.075 4.176-.47 6.42-1.096 3.445-2.309 6.773-3.445 10.179h-21.505c.901-3.589 2.323-6.655 3.289-10.179 4.593-2.4 4.802-9.134 7.046-13.936h-7.046c-.705 1.592-1.305 3.654-2.036 5.794-.992 2.962-2.975 5.82-.783 8.142-1.096 3.445-2.31 6.773-3.445 10.179h-21.453c1.227-2.793 1.618-6.968 3.289-9.865.496-.862 2.022-1.697 2.61-2.819a49.205 49.205 0 0 0 2.818-7.986c1.853-5.507 3.51-10.44 5.481-15.972 1.226-3.497 3.458-7.621 1.722-10.648 1.305-3.08 2.193-6.525 3.445-9.709a.43.43 0 0 1 .366-.418Zm52.771 0h20.2c-1.41 5.338-4.933 10.818-2.871 17.695 4.619-3.784 7.399-10.765 9.395-17.695h17.851c-1.409 3.315-1.683 6.995-3.445 10.022a25.222 25.222 0 0 1-3.758 3.758 120.55 120.55 0 0 0-17.068 20.357c-2.244 3.523-4.75 8.56-3.758 13.154-1.005 3.536-2.232 6.837-3.445 10.178H270.9c1.24-2.975 1.71-6.786 3.289-9.709.574-1.057 1.461-1.774 2.035-2.61a18.692 18.692 0 0 0 3.132-10.804c0-8.169-2.035-16.468-4.228-23.958 1.136-3.302 2.153-6.72 3.445-9.866a.432.432 0 0 1 .314-.522Z" /></svg>
