<svg width="152" height="61" viewBox="0 0 152 61" fill="none" xmlns="http://www.w3.org/2000/svg"><path d="M53.495 60.302c-2.99 0-5.07-1.716-5.07-4.602V40.1h4.03v15.496c0 .702.546 1.092 1.04 1.092s1.04-.39 1.04-1.092V40.1h4.03v15.6c.026 2.912-2.054 4.602-5.07 4.602ZM78.273 44.91c0-.806-.39-1.17-1.092-1.17h-.988v12.714h.988c.702 0 1.092-.364 1.092-1.17V44.91Zm-.572 15.158h-5.512V40.126h5.512c2.808 0 4.55 1.586 4.55 4.368V55.7c0 2.782-1.742 4.368-4.55 4.368Zm6.006-19.942v19.942h7.904v-3.614h-3.926v-4.602h3.458V48.29h-3.432v-4.55h3.9v-3.614h-7.904Zm9.152 0v19.942h3.978v-8.216h3.458V48.29h-3.432v-4.55h3.9v-3.614h-7.904Zm8.996 0v19.942h7.904v-3.614h-3.926v-4.602h3.458V48.29h-3.432v-4.55h3.9v-3.614h-7.904Zm14.17 4.368h.286l.78 8.19h-1.846l.78-8.19Zm-2.912-4.368-2.626 19.942h3.926l.52-3.978h2.522l.52 3.978h3.926l-2.626-19.942h-6.162Zm7.8 0v3.614h3.042v16.328h4.03V43.74h3.016v-3.614h-10.088Zm11.362 0v19.942h7.878v-3.614h-3.9v-4.602h3.458V48.29h-3.432v-4.55h3.874v-3.614h-7.878Zm15.392 4.784c0-.806-.39-1.17-1.092-1.17h-.988v12.714h.988c.702 0 1.092-.364 1.092-1.17V44.91Zm-.598 15.158h-5.512V40.126h5.512c2.808 0 4.55 1.586 4.55 4.368V55.7c0 2.782-1.742 4.368-4.55 4.368Zm-80.08-.026-3.016-9.958v9.958h-3.848V40.1h3.614l2.99 10.296V40.1h3.874v19.942h-3.614ZM55.653 21.536v16.328h-4.03V21.536h-3.068v-3.614h10.166v3.614h-3.068Zm10.894 16.328v-8.216h-2.366v8.216h-4.056V17.922h4.056v8.19h2.366v-8.19h4.056v19.942h-4.056Zm5.642 0V17.922h7.878v3.614h-3.874v4.576h3.432v3.536h-3.458v4.628h3.9v3.588M35.309 59.886c-9.178 0-13.728-6.396-13.728-17.108V.242H.105v42.77c0 10.712 5.122 17.108 10.686 17.108h24.518v-.234Z" fill="#000"/><path d="M24.413 42.735c0 5.304 1.404 14.196 10.79 14.196s10.66-8.892 10.66-14.196V17.931h-21.45v24.804Z" fill="#000"/></svg>
