<svg width="202" height="60" viewBox="0 0 202 60" fill="none" xmlns="http://www.w3.org/2000/svg"><path d="M177.802.585h-29.071c-8.347 0-10.712 2.475-10.712 10.412v22.977c0 8.136 2.376 10.3 10.712 10.3h29.071c8.236 0 10.711-2.22 10.711-10.3V10.997C188.524 3.06 186.149.585 177.802.585Zm.555 35.942h-30.17V8.355h30.17v28.172Zm-74.537-4.74L86.993.585H75.615l23.999 43.667h8.469L132.081.585h-11.433L103.82 31.787ZM.324 8.355h20.047v35.897h10.145V8.355h20.135V.585H.324v7.77Zm57.909 35.897h10.1V10.575h-10.1v33.677Zm0-35.897h10.1V.585h-10.1v7.77Zm45.598 47.341a44.543 44.543 0 0 1-18.037-3.818l-1.965 3.408a50.616 50.616 0 0 0 40.038 0l-1.976-3.408a44.564 44.564 0 0 1-18.06 3.819ZM191.344 1.34h1.698v4.617h.722V1.34h1.698V.674h-4.118v.666Zm9.268-.666-1.665 3.996-1.676-3.996h-1.11v5.283h.722v-4.34l1.787 4.34h.477l1.787-4.34v4.34h.722V.674h-1.11.066Z" /></svg>
