<svg version="1" xmlns="http://www.w3.org/2000/svg" width="933.333" height="933.333" viewBox="0 0 700.000000 700.000000"><path d="M481.5 50.7c-15.3 2.7-22.5 6.1-30.7 14.4-6.7 6.8-12.8 18.5-15.7 30.4-1.9 7.7-2 11.5-1.8 102.5.3 105.8-.3 98.1 7.7 114.7 9 18.6 25.2 28.3 47.3 28.4 27.4.2 46.2-15.1 53.8-43.7 1.8-6.8 2.1-11.2 2.4-32.1.1-17-.1-24.3-.9-24.6-.9-.3-35.9-.1-37.6.2-.3.1-.6 9.9-.7 21.8-.1 23.8-.8 28.6-5.1 33.4-4.9 5.5-14.1 5.8-19.2.6-6.3-6.5-6.2-3.8-6.2-99.7 0-47.8.3-88.4.7-90.2 2.3-11.5 7.9-16.7 16.8-15.4 5.3.8 8.3 3.4 11 9.5 1.8 4.1 2 6.7 2.1 27.3V151h39.3l-.2-22.8c-.2-22.9-1-30.7-4.4-40.4-6.7-19.4-21.2-33.1-38.6-36.3-3.9-.8-17.4-1.3-20-.8zM177 168.6c0 63.5 0 115.7-.1 116.1-.2 2-3.1 7.9-4.7 9.6-2.7 3-7.3 5.1-12.7 5.7l-5 .5v19.3c0 10.7.3 19.9.6 20.4.7 1.1 18.7.6 23.9-.6 15.3-3.5 25.9-10.9 32.8-22.9 1.2-2.2 3.2-7.1 4.5-11l2.2-7.2.3-122.6.3-122.6H177v115.3zM248 195.9v142.6l17.7-.2c9.8-.1 18.5-.2 19.5-.2 1.5-.1 1.6-7.4 1.7-95.2 0-52.3.3-95.4.6-95.7 1-1.1 1.5.7 3 10.9 3.2 22 3.6 24.8 3.9 26.6.2 1 .7 4.6 1.1 7.8.4 3.3.9 6.9 1.1 8 .6 2.9 2.2 13.3 2.9 18.5.3 2.5.8 5.6 1 7 .2 1.4.6 3.8.9 5.5.2 1.6.7 4.9 1.1 7.3.4 2.3.8 5.2 1 6.5.4 3.3 1.5 10.5 2.5 16.7.5 3 1.1 7.5 1.4 10 .4 2.5.8 5.6 1 7 .6 3 1.3 8 2.1 13.5.3 2.2.7 5.3 1 7 .3 1.6.7 4.8 1 7 .4 2.2.8 5.1 1 6.4.3 1.4 1.2 7.5 2.1 13.5.9 6.1 1.7 11.3 1.9 11.5.8.8 16.7.3 17.4-.5.4-.5 1.3-5 2-9.9 1.5-11.5 1.9-14 3.7-25.5.8-5.2 1.7-11.3 2-13.5.3-2.2 1.6-10.8 2.9-19 1.3-8.3 2.6-17.5 3-20.5.3-3 .8-6.2 1-7 .2-.8.7-3.5 1-6 1-7.3 2.4-16.5 3-20 .2-.8.6-3.8.9-6.5.7-5.2 1.1-7.4 2.6-16.5.5-3 1.2-7.9 1.5-10.9.4-3 .9-6.3 1.1-7.5.9-4.6 2.6-15.4 3-19.6.6-5.7 1.3-8 2.4-8 .6 0 .9 38.7.7 95.5-.2 94.9-.2 95.5 1.8 95.6 2.9.1 32.6.1 35.1 0l2-.1V53.3h-25.3c-14 0-25.6.3-25.8.7-.2.4-.7 2-.9 3.6-.3 1.6-.8 4-1.1 5.4-.3 1.4-1 5.2-1.6 8.5-.6 3.3-2.1 11.6-3.5 18.5s-2.7 14.1-3 16c-.3 1.9-.9 5.3-1.4 7.5-.5 2.2-1.1 5.3-1.4 7-.3 1.6-.8 4.1-1.1 5.5-.3 1.4-.8 3.8-1 5.5-.3 1.6-1.2 6.4-2 10.5-2 10.1-2.5 13.1-3 16-.2 1.4-.7 3.6-1 5-.3 1.4-.9 5-1.5 8s-1.2 6.5-1.4 7.7c-.4 1.7-1.1 6-2.1 12.8-.1.5-.3 2.3-.3 3.8-.1 1.6-.6 2.6-1.1 2.2-.6-.3-.9-1.3-.9-2.3.1-3.6-1.2-11.6-7.7-45.2-.3-1.4-2.3-12.4-4.5-24.5-2.3-12.1-4.5-23.8-5-26-.6-2.2-1.7-8.1-2.6-13-.9-5-1.8-9.9-2-11-1.3-6.7-3.5-18.3-3.9-20.1-.5-2.1-.8-2.1-26-2.1H248v142.6zM344 358.7c-18.7 2.4-30.2 8.6-39.3 21.5-8.1 11.5-11.9 24.7-12.2 42.6-.6 25.8 7.4 45.4 34.9 86.6 25.8 38.6 28.9 43.8 33.5 56.2 4 10.7 3.5 27.8-1.1 36.9-3.1 6-7.5 8.8-13.5 8.6-12.4-.3-18.5-14.5-19.2-44.9l-.1-3.4-6.7.7c-3.8.4-8.5.8-10.5 1.1-2 .2-6.8.6-10.6 1-3.9.3-7.9.7-8.9.9-1 .2-2.4.4-3.1.4-1.6.1-.9 18.2 1.3 33.2 1.8 11.7 8.7 27.2 15.3 34.2 6.5 6.9 19.1 13.1 29.5 14.4 6.6.9 22.1.8 27 0 20.2-3.6 34.3-16.9 40.5-38.2 2.8-9.3 3.4-13.8 3.7-28.2.7-27.4-5.9-42.7-41.9-97.1-26.6-40.1-29.6-46.8-29.1-64 .4-13.6 3.1-20.3 9.2-22.8 4.8-2 7.8-1.7 11.3 1.2 6.4 5.4 9.6 16.6 9.9 34.7l.1 3.9 6.3-.7c3.4-.3 7.8-.8 9.7-1 1.9-.2 7.2-.7 11.8-1 4.6-.4 9.1-.8 10-1 .9-.2 2.1-.4 2.5-.4.8-.1.3-11.7-.9-21.5-.9-7.7-5.2-21.4-8.7-28-8.4-15.7-22.9-24.7-41.2-25.5-3.3-.1-6.2-.4-6.5-.5-.3-.1-1.6-.1-3 .1zM152.4 361.8l-2 .3v142.2l.1 142.2 22-.1c35.6 0 45.1-1.3 60.3-8.2 6-2.7 14.8-10.5 18.7-16.6 6.2-9.8 10.9-26.7 13-47.4 2.5-24.1 2.5-120.3 0-138.7-.2-1.7-.7-5.9-1-9.5-.4-3.6-.9-6.7-1-7-.2-.3-.6-2.5-1-4.9-.4-2.5-1.9-8.2-3.4-12.8-8.7-25.7-25.7-36.8-59.6-38.9-10.8-.7-42.7-1.1-46.1-.6zm57.3 44.6c6.9 3.5 10.3 11.7 12.1 29 .9 9.2.9 129 0 138.1-.8 7.9-3.1 17.3-5.2 21.3-3.3 6.4-10.4 9.9-19.6 9.8l-4.5-.1-.1-100c-.1-57 .2-100.2.7-100.6 1.5-.9 13.6.9 16.6 2.5zM428.1 362c-.4.3-.7 64.4-.6 142.5v142l19.3.1 19.2.1v-80.9c0-83.1.2-87.8 3.7-75.2.7 2.7 1.8 6.5 2.3 8.4.6 1.9 3.3 11.8 6 22s5.4 20.1 6 22c.6 1.9 3.3 11.8 6.1 22s7.1 25.9 9.6 35c2.5 9 4.7 17.1 4.9 18 1.2 5.4 7.3 27.1 7.8 27.8.3.5 8.7.9 18.8.8l18.3-.1.2-141c0-77.6-.1-141.7-.3-142.5-.3-1.3-3.1-1.5-18.1-1.3-9.8.1-18.4.2-19.1.2-1 .1-1.2 16.1-1.2 80.3.1 54.4-.2 80.4-1 81.2-.5.5-1 .7-1 .3 0-.4-1.3-5.5-2.9-11.4-2.3-8.2-12.5-45.3-16.6-60.3-2.4-8.6-5.7-20.8-6-22-.2-.8-2.9-10.7-6-22-3.2-11.3-7.2-26.1-9-32.8-1.9-6.8-3.6-12.6-3.9-12.9-.6-.7-35.6-.9-36.5-.3z"/></svg>