<svg width="212" height="60" viewBox="0 0 212 60" fill="none" xmlns="http://www.w3.org/2000/svg"><path d="M127.044 58.462c-2.579 0-4.16-2.371-4.16-4.566 0-3.079 2.451-4.72 4.217-4.72a3.903 3.903 0 0 1 3.328 1.99l.724-.393a4.692 4.692 0 0 0-4.052-2.42c-2.425 0-5.04 2.119-5.04 5.543 0 2.973 2.24 5.392 4.999 5.392 1.92 0 3.376-.787 4.285-2.346l-.711-.416c-.777 1.303-1.949 1.936-3.59 1.936Zm19.232-5.299h-6.842v-4.698h-.825v10.666h.825v-5.146h6.842v5.146h.822V48.465h-.822v4.698Zm43.373-4.698h-.826v10.82h7.226v-.823h-6.4v-9.997Zm-13.741-.259c-2.81 0-5.095 2.487-5.095 5.54 0 3.052 2.285 5.539 5.095 5.539 2.809 0 5.094-2.487 5.094-5.54 0-3.052-2.291-5.539-5.094-5.539Zm0 10.24c-2.355 0-4.272-2.115-4.272-4.717 0-2.601 1.92-4.716 4.272-4.716 2.352 0 4.272 2.115 4.272 4.716 0 2.602-1.914 4.733-4.272 4.733v-.016Zm-16.525-10.24c-2.81 0-5.094 2.487-5.094 5.54 0 3.052 2.284 5.539 5.094 5.539 2.81 0 5.094-2.487 5.094-5.54 0-3.052-2.284-5.539-5.094-5.539Zm0 10.24c-2.355 0-4.272-2.115-4.272-4.717 0-2.601 1.92-4.716 4.272-4.716 2.352 0 4.272 2.115 4.272 4.716 0 2.602-1.904 4.733-4.272 4.733v-.016Zm-46.646-4.589a11.051 11.051 0 0 0-2.221-.61c-.423-.084-.899-.177-1.514-.32-1.117-.282-1.549-1.031-1.315-2.286.144-.78 1.222-1.6 2.931-1.6a3.84 3.84 0 0 1 2.714.922l.272.198.477-.672-.256-.188a4.635 4.635 0 0 0-3.2-1.085c-1.92 0-3.498.96-3.741 2.285-.32 1.692.371 2.838 1.92 3.232.64.16 1.126.256 1.558.342a10.37 10.37 0 0 1 2.074.57 2.27 2.27 0 0 1 1.305 1.19 1.522 1.522 0 0 1-.025 1.229c-.496 1.104-1.706 1.568-3.703 1.42-2.124-.16-2.94-1.25-2.972-1.28l-.676.474c.042.061 1.047 1.453 3.588 1.645.251.02.495.029.729.029 1.936 0 3.2-.64 3.786-1.92a2.38 2.38 0 0 0 .214-.935 2.38 2.38 0 0 0-.176-.944 3.05 3.05 0 0 0-1.769-1.696Zm98.764 1.645a3.059 3.059 0 0 0-1.766-1.645 11.033 11.033 0 0 0-2.221-.61c-.422-.084-.899-.177-1.513-.32-1.117-.282-1.549-1.031-1.316-2.286.144-.78 1.223-1.6 2.932-1.6a3.84 3.84 0 0 1 2.713.922l.272.198.477-.672-.256-.188a4.634 4.634 0 0 0-3.2-1.085c-1.92 0-3.498.96-3.741 2.285-.32 1.692.371 2.838 1.92 3.232.64.16 1.127.256 1.559.342.709.117 1.404.308 2.073.57a2.27 2.27 0 0 1 1.306 1.19 1.535 1.535 0 0 1-.026 1.229c-.496 1.104-1.705 1.568-3.702 1.42-2.125-.16-2.941-1.25-2.973-1.28l-.688.436c.042.06 1.046 1.453 3.584 1.645.252.019.495.028.73.028 1.936 0 3.2-.64 3.785-1.92a2.372 2.372 0 0 0 .051-1.89Zm-103.958-12.49h-1.181V27.775h5.914a4.701 4.701 0 0 1 3.424 1.3 5.184 5.184 0 0 1 1.395 3.673c0 2.24-1.734 4.666-4.515 4.666-2.442 0-4.183-.02-5.037-.03v5.633-.003Zm0-6.809c.845 0 2.586.029 5.037.029 2.057 0 3.334-1.811 3.337-3.488a3.998 3.998 0 0 0-1.049-2.835 3.524 3.524 0 0 0-2.589-.96h-4.736v7.254Zm70.73 6.938h-10.128V27.96h1.168v14.013h8.96v1.168Zm9.571-15.181h1.168v15.062h-1.168V27.96Zm17.747 15.18c-3.91 0-7.091-3.43-7.091-7.65 0-4.858 3.712-7.866 7.155-7.866a6.654 6.654 0 0 1 5.76 3.437l-1.024.556a5.537 5.537 0 0 0-4.723-2.825c-2.509 0-5.984 2.326-5.984 6.697 0 3.117 2.265 6.48 5.923 6.48 2.333 0 3.994-.899 5.075-2.748l1.008.588c-1.299 2.215-3.35 3.332-6.099 3.332Zm-51.546-.089h-6.611V27.915h6.4c2.32 0 3.939 1.514 3.939 3.683 0 1.667-.64 2.999-1.708 3.703 1.494.64 2.361 1.977 2.361 3.785.007 2.602-2.201 3.965-4.381 3.965Zm-5.635-.98h5.635c1.642 0 3.408-.934 3.408-2.982s-1.344-3.241-3.686-3.241h-5.357V42.072Zm5.341-7.202h.442c1.92 0 2.595-1.76 2.595-3.27 0-1.62-1.191-2.705-2.963-2.705h-5.44v5.975h5.366Zm-16.771-6.91v8.372c0 2.73-1.363 5.645-5.197 5.645s-5.197-2.915-5.197-5.645V27.96h-1.168v8.371c0 3.142 1.667 6.813 6.365 6.813s6.365-3.67 6.365-6.813V27.96h-1.168ZM22.231.772H.349v22.95A39.36 39.36 0 0 1 22.231.773ZM.385 47.611v12.08h11.459a25.824 25.824 0 0 1-11.46-12.08ZM95.277 40.097V.737h-39.36a61.31 61.31 0 0 1 39.36 39.36Z" fill="#000"/><path d="m119.159 16.09.026.065 2.009 5.363h3.677L116.983.616h-3.52l-8.032 20.902h3.936l1.84-5.44h7.952v.013Zm-4.006-11.66 3.2 9.168h-6.359l3.159-9.168Zm27.734 12.182c.17-1.388.118-4.78-4.035-6.224-1.242-.432-2.295-.7-3.226-.934-1.76-.448-3.03-.771-3.933-1.84a2.244 2.244 0 0 1-.476-2.3c.364-.91 1.34-1.534 2.611-1.671 2.115-.227 4.688.496 6.585 1.843l1.77-2.88a12.44 12.44 0 0 0-6.848-2.22c-4.234 0-7.258 1.958-7.888 5.12-.678 3.388 1.101 5.807 4.88 6.636 4.358.96 6.72 1.843 6.72 3.782 0 2.087-1.92 2.452-3.603 2.535-2.179.112-4.8-.82-7.203-2.56l-1.645 3.2c.841.547 4.39 2.672 8.742 2.672 4.755-.01 7.245-2.679 7.549-5.159Zm14.291-2.46c3.165 0 5.619-3.456 5.619-6.43 0-2.857-1.846-7.11-6.928-7.11h-8.406v20.906h3.754v-7.309h.201s2.512-.057 5.76-.057Zm-5.904-10.375h4.32c2.381 0 3.639 1.373 3.639 3.965 0 1.648-1.012 3.42-3.232 3.42h-4.727V3.778ZM166.948.616h3.568v20.902h-3.568V.616Zm22.003 20.902h4.336l-4.928-7.926.259-.077c1.475-.429 3.667-2.34 3.667-5.853 0-3.395-2.006-7.04-6.416-7.04h-9.28v20.896h3.677v-7.264h4.247l4.438 7.264Zm-8.64-17.686h4.704c2.666 0 3.562 2.518 3.562 3.667 0 .86-.256 3.667-3.562 3.667h-4.704V3.832Zm29.309 8.502V9.396h-8.586V3.723h10.055V.616h-13.975v20.902h14.464v-3.322h-10.627v-5.862h8.669ZM93.719 58.827v.73h1.472v-.73C95.191 26.852 69.178.84 37.204.84 17.278.863 1.13 17.01 1.108 36.936c.014 12.487 10.133 22.606 22.62 22.62 7.83-.01 14.172-6.353 14.183-14.182a9.152 9.152 0 0 0-9.12-9.165 5.808 5.808 0 0 0-5.802 5.802 4.083 4.083 0 0 0 4.084 4.073 2.448 2.448 0 0 0 2.448-2.441.73.73 0 0 0-1.46 0 .989.989 0 0 1-.988.985 2.624 2.624 0 0 1-2.624-2.614 4.349 4.349 0 0 1 4.342-4.342 7.68 7.68 0 0 1 7.66 7.708c-.013 7.025-5.71 12.712-12.735 12.714-11.682-.013-21.149-9.477-21.165-21.158.023-19.12 15.517-34.614 34.637-34.637 31.171 0 56.531 25.357 56.531 56.528Z" fill="#000"/></svg>
