<svg width="178" height="60" viewBox="0 0 178 60" fill="none" xmlns="http://www.w3.org/2000/svg"><path d="M86.183 9.779c.118-.118.135-.32.017-.438-1.213-1.314-2.61-2.14-4.529-2.14-4.478 0-5.858 3.59-5.858 6.05 0 2.528 1.38 6.066 5.858 6.066 1.785 0 3.2-.741 4.427-1.904a.336.336 0 0 0 .018-.456l-1.162-1.38c-.1-.136-.287-.136-.422-.034-.79.657-1.901 1.196-2.844 1.196-2.744 0-3.13-2.612-3.13-3.488 0-.877.386-3.506 3.112-3.506.893 0 2.021.607 2.728 1.332a.312.312 0 0 0 .422.017l1.363-1.315Zm7.323-2.275a.439.439 0 0 0-.808 0L87.53 18.896c-.05.118.05.27.185.27h2.407a.458.458 0 0 0 .421-.287l.842-2.107h3.468l.841 2.107a.46.46 0 0 0 .422.287h2.407c.135 0 .236-.152.169-.27L93.507 7.504Zm-.387 4.971.875 2.191h-1.767l.892-2.19v-.001Zm10.106-4.802a.31.31 0 0 0-.088-.215.31.31 0 0 0-.215-.089h-2.105a.3.3 0 0 0-.302.304v11.19a.302.302 0 0 0 .302.304h6.364a.303.303 0 0 0 .303-.305v-1.904a.301.301 0 0 0-.303-.304h-3.956V7.674Zm9.145 0a.31.31 0 0 0-.089-.215.296.296 0 0 0-.215-.089h-2.087a.3.3 0 0 0-.28.187.291.291 0 0 0-.023.117v11.19a.302.302 0 0 0 .303.304h2.087a.305.305 0 0 0 .215-.09.31.31 0 0 0 .089-.215V7.673Zm9.517 6.926a.307.307 0 0 0 .215-.088.305.305 0 0 0 .088-.215v-1.904a.303.303 0 0 0-.303-.304h-3.973V9.88h5.152a.303.303 0 0 0 .28-.187.29.29 0 0 0 .022-.116V7.673a.29.29 0 0 0-.088-.215.296.296 0 0 0-.214-.089h-7.525a.304.304 0 0 0-.281.187.309.309 0 0 0-.022.117v11.19a.305.305 0 0 0 .303.304h2.07a.305.305 0 0 0 .281-.189.308.308 0 0 0 .022-.116V14.6h3.973Zm8.339-7.432c-4.478 0-5.859 3.623-5.859 6.084 0 2.528 1.381 6.1 5.859 6.1 4.461 0 5.841-3.573 5.841-6.1 0-2.46-1.38-6.084-5.841-6.084Zm0 9.656c-2.728 0-3.115-2.696-3.115-3.572 0-.877.387-3.54 3.115-3.54 2.71 0 3.097 2.663 3.097 3.54 0 .876-.387 3.572-3.097 3.572Zm16.808-5.56c0-1.602-.994-3.894-4.259-3.894h-4.209a.3.3 0 0 0-.281.187.29.29 0 0 0-.022.117v11.19c0 .168.135.303.303.303h2.071a.3.3 0 0 0 .28-.188.31.31 0 0 0 .023-.116v-3.656h1.195l1.717 3.69a.486.486 0 0 0 .438.27h2.34c.135 0 .235-.152.168-.27l-1.936-4.145c1.263-.624 2.172-1.82 2.172-3.489Zm-4.108 1.415h-1.986V9.863h1.918c1.213 0 1.482.91 1.482 1.399 0 .438-.269 1.382-1.414 1.415v.001Zm8.698 6.488a.305.305 0 0 0 .281-.188.308.308 0 0 0 .022-.116v-5.881l6.465 6.118a.52.52 0 0 0 .37.151.224.224 0 0 0 .219-.22V7.674a.309.309 0 0 0-.088-.215.301.301 0 0 0-.215-.089h-2.088a.301.301 0 0 0-.303.304v5.68l-6.397-5.984a.672.672 0 0 0-.438-.168c-.134 0-.236.118-.236.252v11.41c0 .168.135.303.304.303h2.104Zm12.917-11.493a.3.3 0 0 0-.303-.304h-2.087a.305.305 0 0 0-.215.089.31.31 0 0 0-.089.215v11.19c0 .168.135.303.304.303h2.087a.298.298 0 0 0 .28-.187.291.291 0 0 0 .023-.117V7.673Zm7.784-.169a.438.438 0 0 0-.809 0l-5.167 11.392c-.051.118.049.27.184.27h2.408a.46.46 0 0 0 .421-.287l.841-2.107h3.468l.842 2.107a.458.458 0 0 0 .421.287h2.407c.135 0 .236-.152.169-.27l-5.185-11.392Zm-.387 4.971.875 2.191h-1.768l.893-2.19v-.001ZM83.402 31.938v1.163c-.387.286-1.11.488-1.683.488-2.727 0-3.115-2.73-3.115-3.606 0-.876.387-3.472 3.115-3.472.825 0 1.885.506 2.592 1.13a.311.311 0 0 0 .422-.018l1.262-1.38a.316.316 0 0 0 0-.44c-1.145-1.129-2.475-1.836-4.276-1.836-4.478 0-5.858 3.59-5.858 6.05 0 2.528 1.38 6.066 5.858 6.066 1.734 0 3.064-.573 4.175-1.6a.737.737 0 0 0 .219-.523v-4.196a.302.302 0 0 0-.303-.303h-4.343a.301.301 0 0 0-.303.303v1.87a.301.301 0 0 0 .302.304h1.936Zm13.761-3.91c0-1.6-.993-3.893-4.26-3.893h-4.208a.303.303 0 0 0-.303.304v11.19c0 .168.135.303.303.303h2.07a.3.3 0 0 0 .303-.304v-3.656h1.196l1.717 3.69a.486.486 0 0 0 .438.27h2.34c.134 0 .236-.15.168-.27l-1.936-4.145c1.263-.623 2.172-1.82 2.172-3.488Zm-4.108 1.416h-1.987v-2.815h1.92c1.212 0 1.481.911 1.481 1.4 0 .438-.27 1.381-1.414 1.415Zm11.206-5.174a.43.43 0 0 0-.404-.27.437.437 0 0 0-.404.27l-5.168 11.392c-.05.119.05.27.185.27h2.407a.458.458 0 0 0 .422-.287l.841-2.107h3.468l.842 2.108a.458.458 0 0 0 .421.286h2.407c.135 0 .236-.151.168-.27l-5.185-11.392Zm-.387 4.971.876 2.191h-1.768l.892-2.19v-.001Zm9.803 6.69a.298.298 0 0 0 .28-.186.29.29 0 0 0 .022-.117v-5.88l6.465 6.117a.522.522 0 0 0 .371.151.221.221 0 0 0 .218-.22V24.44a.29.29 0 0 0-.088-.215.295.295 0 0 0-.215-.089h-2.087a.3.3 0 0 0-.281.187.29.29 0 0 0-.022.117v5.68l-6.397-5.984a.672.672 0 0 0-.438-.168c-.135 0-.235.118-.235.253v11.408a.301.301 0 0 0 .302.303h2.105Zm12.213-.303c0 .169.136.304.303.304h2.105a.298.298 0 0 0 .215-.089.32.32 0 0 0 .066-.098.309.309 0 0 0 .022-.117v-8.982h2.812a.305.305 0 0 0 .214-.088.29.29 0 0 0 .088-.215v-1.904a.29.29 0 0 0-.088-.215.295.295 0 0 0-.214-.089h-8.3a.305.305 0 0 0-.215.089.303.303 0 0 0-.088.215v1.904a.305.305 0 0 0 .303.304h2.777v8.981Zm12.351-6.757c-1.313-.472-2.491-.792-2.559-1.517-.017-.64.639-.86 1.346-.86.944 0 2.34.507 3.082.776.167.068.336 0 .403-.151l.758-1.736a.328.328 0 0 0-.152-.421c-1.969-.911-3.518-1.012-4.258-1.012-2.257 0-3.889 1.314-3.889 3.522 0 2.427 2.138 3.084 3.838 3.64 1.111.354 2.02.675 2.02 1.416 0 .59-.74 1.01-1.616 1.01-.977 0-2.02-.386-3.098-.875-.151-.068-.337-.017-.404.134l-.926 1.72c-.067.15-.016.336.135.403 1.431.742 2.761 1.147 4.394 1.147 2.575 0 4.36-1.602 4.36-3.657 0-2.158-1.801-2.967-3.434-3.539ZM79.637 48.769h2.037c1.987 0 4.058-1.584 4.058-3.943 0-1.602-.993-3.893-4.26-3.893H77.23a.302.302 0 0 0-.303.303v11.19a.299.299 0 0 0 .187.28.3.3 0 0 0 .116.023h2.104a.3.3 0 0 0 .303-.303v-3.657Zm1.97-2.529h-1.97v-2.813h1.92c1.212 0 1.481.91 1.481 1.399 0 .438-.27 1.381-1.43 1.415h-.002Zm11.492-5.509c-4.478 0-5.859 3.623-5.859 6.083 0 2.529 1.38 6.1 5.859 6.1 4.461 0 5.842-3.572 5.842-6.1 0-2.46-1.38-6.084-5.842-6.084v.001Zm0 9.656c-2.727 0-3.114-2.697-3.114-3.573 0-.877.387-3.539 3.114-3.539 2.71 0 3.097 2.663 3.097 3.54 0 .876-.387 3.572-3.097 3.572Zm16.808-5.562c0-1.6-.993-3.892-4.259-3.892h-4.209a.302.302 0 0 0-.303.303v11.19c0 .168.135.303.303.303h2.071a.298.298 0 0 0 .215-.088.303.303 0 0 0 .088-.215v-3.657h1.195l1.717 3.69a.487.487 0 0 0 .438.27h2.34c.135 0 .236-.152.169-.27l-1.936-4.145c1.262-.623 2.171-1.82 2.171-3.488v-.001Zm-4.108 1.416h-1.986v-2.814h1.919c1.213 0 1.482.91 1.482 1.399 0 .438-.269 1.381-1.415 1.415Zm8.117 6.185c0 .168.135.303.303.303h2.105a.3.3 0 0 0 .28-.187.309.309 0 0 0 .023-.116v-8.982h2.811a.298.298 0 0 0 .28-.187.31.31 0 0 0 .023-.117v-1.904a.31.31 0 0 0-.088-.215.3.3 0 0 0-.215-.088h-8.3a.302.302 0 0 0-.303.303v1.904c0 .169.135.304.303.304h2.778v8.982Zm11.002-11.358a.436.436 0 0 0-.808 0l-5.168 11.391c-.051.118.05.27.185.27h2.408a.458.458 0 0 0 .42-.286l.842-2.107h3.468l.842 2.107a.457.457 0 0 0 .421.286h2.407c.134 0 .236-.152.169-.27l-5.186-11.391Zm-.387 4.97.875 2.192h-1.767l.892-2.19v-.002Zm10.106-4.802a.308.308 0 0 0-.088-.215.312.312 0 0 0-.215-.088h-2.104a.305.305 0 0 0-.216.088.301.301 0 0 0-.088.215v11.19c0 .168.135.303.304.303h6.363a.298.298 0 0 0 .28-.187.29.29 0 0 0 .022-.116v-1.904a.302.302 0 0 0-.302-.304h-3.956v-8.982ZM.64 30.001C.64 13.67 13.88.43 30.211.43c16.332 0 29.572 13.24 29.572 29.571 0 16.332-13.24 29.572-29.572 29.572C13.88 59.573.64 46.333.64 30v.001Zm33.633-2.368c-.928.09-1.839.307-2.708.643-2.746.954-3.594 1.873-4.018 1.974 1.13-1.914 4.318-5.563 7.064-8.58a13.345 13.345 0 0 1 2.261-2.017c-.254.72-.59 1.683-1.017 2.882-.421 1.172-.686 1.95-.791 2.335-.256.922-.52 1.842-.791 2.76v.003Zm-.487 1.925.026-.01c-.08.422-.19 4.601 1.265 3.305.473-.107.792-3.28.914-3.655.487-.098.983-.14 1.48-.124.189.009.378-.003.565-.034a.877.877 0 0 0 .494-.404 1.17 1.17 0 0 0 .218-.669c.002-.523-.335-.783-1.011-.783-.232 0-.512.017-.848.017a3.089 3.089 0 0 1-.418.02c.15-.788.447-1.918.89-3.389a67.22 67.22 0 0 1 1.605-4.687 5.783 5.783 0 0 0 .485-1.746c0-.276-.101-.542-.282-.75a1.024 1.024 0 0 0-.788-.374c-.488.002-1.193.454-2.113 1.354-1.585 1.535-2.389 1.574-12.843 16.3-1.056 1.485-4.473 7.87-7.213 7.973a2.169 2.169 0 0 1-1.03-.243 2.224 2.224 0 0 1-.801-.702 3.132 3.132 0 0 1-.678-2.018c0-1.667.51-3.674 1.528-6.017a30.513 30.513 0 0 1 4.332-6.917 28.577 28.577 0 0 1 4.238-4.366c1.173-.961 2.081-1.442 2.724-1.442a.906.906 0 0 1 .707.265c.174.237.257.53.234.822 0 .903-.436 2.008-1.305 3.317a10.242 10.242 0 0 1-2.39 2.496c-.71.534-1.064 1.009-1.064 1.424.01.247.108.482.275.663.165.18.39.294.633.32.37.001.881-.325 1.531-.98a14.319 14.319 0 0 0 2.5-3.416c.754-1.473 1.131-2.787 1.131-3.939a2.67 2.67 0 0 0-.506-1.64 2.12 2.12 0 0 0-.793-.661 2.081 2.081 0 0 0-1.007-.204c-1.388 0-3.054.874-4.998 2.62-2.26 2.03-4.402 4.709-6.426 8.035-2.377 3.916-3.565 7.152-3.565 9.71a5.208 5.208 0 0 0 .718 2.728c.744 1.247 1.796 1.871 3.159 1.871 5.995 0 9.773-14.07 18.428-14.07h-.001Zm-9.596 10a1.426 1.426 0 0 0-.176 1.77c.175.27.438.47.744.566.304.095.632.08.926-.043.295-.125.538-.349.688-.632a1.426 1.426 0 0 0-.334-1.748 1.364 1.364 0 0 0-1.402-.219c-.168.07-.32.174-.446.306Zm9.417-4.14v.002-.002Zm0 .002h-.009a4.068 4.068 0 0 0-1.352-1.032 4.396 4.396 0 0 0-1.763-.356 3.67 3.67 0 0 0-1.604.31 3.74 3.74 0 0 0-1.321.976 3.732 3.732 0 0 0-.947 2.539 4.015 4.015 0 0 0 .512 1.986 3.617 3.617 0 0 0 1.395 1.415c.613.339 1.303.51 2.003.499a3.575 3.575 0 0 0 1.832-.456 3.442 3.442 0 0 0 1.269-1.32c.322-.555.49-1.186.49-1.828v-.31h-3.635v1.31h2.096a2.13 2.13 0 0 1-.786.955c-.364.214-.778.32-1.198.306a2.501 2.501 0 0 1-1.84-.738 2.462 2.462 0 0 1-.745-1.805 2.359 2.359 0 0 1 .72-1.747 2.436 2.436 0 0 1 1.78-.72 2.822 2.822 0 0 1 2.137.99l.966-.974Zm4.719-1.388-.005-.005a3.725 3.725 0 0 0-1.881.516c-.575.34-1.05.823-1.38 1.404a4 4 0 0 0 .564 4.659c.347.36.761.646 1.22.843.92.397 1.961.402 2.886.016.46-.192.877-.474 1.226-.83a3.968 3.968 0 0 0 1.091-2.738 3.967 3.967 0 0 0-1.09-2.737 3.582 3.582 0 0 0-1.201-.843 3.523 3.523 0 0 0-1.43-.284v-.001Zm.894 1.554c.29.127.55.313.762.547a2.62 2.62 0 0 1 .688 1.776 2.623 2.623 0 0 1-.688 1.775 2.208 2.208 0 0 1-1.656.72 2.307 2.307 0 0 1-1.526-.555 2.377 2.377 0 0 1-.847-1.93 2.485 2.485 0 0 1 .678-1.803c.214-.23.474-.413.763-.536a2.2 2.2 0 0 1 .912-.176c.314-.005.626.057.914.182Zm2.58-1.369 2.552 7.355h1.323l2.603-7.355h-1.405l-1.85 5.225-1.812-5.225H41.8Z" /></svg>
