<svg width="209" height="59" viewBox="0 0 209 59" fill="none" xmlns="http://www.w3.org/2000/svg"><path d="M60.963.244H33.274c-1.977 0-3.873.828-5.271 2.3a8.064 8.064 0 0 0-2.185 5.549v3.094H8.192c-1.978 0-3.874.828-5.272 2.299a8.063 8.063 0 0 0-2.185 5.549c0 2.082.787 4.077 2.185 5.55 1.398 1.471 3.294 2.299 5.272 2.299H25.81v5.625H14.054c-1.978 0-3.874.828-5.272 2.299A8.063 8.063 0 0 0 6.6 40.357c0 2.082.785 4.078 2.183 5.55 1.398 1.471 3.294 2.3 5.272 2.3H25.81v2.798a8.16 8.16 0 0 0 .566 3.008c.374.953.925 1.82 1.617 2.55a7.442 7.442 0 0 0 2.422 1.702 7.135 7.135 0 0 0 2.857.596h7.735a7.123 7.123 0 0 0 2.925-.523 7.423 7.423 0 0 0 2.502-1.683 7.863 7.863 0 0 0 1.679-2.577 8.207 8.207 0 0 0 0-6.123 7.878 7.878 0 0 0-1.678-2.576 7.424 7.424 0 0 0-2.501-1.684 7.124 7.124 0 0 0-2.926-.522H30.597v-5.617H46.84c1.976 0 3.872-.828 5.271-2.3a8.062 8.062 0 0 0 2.184-5.549c0-2.082-.787-4.077-2.184-5.55-1.399-1.471-3.295-2.299-5.271-2.299H30.597v-5.633h18.037c3.39 0 6.642-1.417 9.039-3.941 2.398-2.526 3.745-5.948 3.745-9.517V.732a.502.502 0 0 0-.134-.343.454.454 0 0 0-.323-.146l.002.001ZM41.04 48.214c.347-.003.694.066 1.017.203.323.139.617.343.865.6.248.259.444.567.58.905a2.912 2.912 0 0 1-.577 3.066 2.628 2.628 0 0 1-1.894.835h-7.734a2.609 2.609 0 0 1-1.884-.825 2.893 2.893 0 0 1-.784-1.983v-2.802H41.07h-.03Zm-15.231-5.04H14.052a2.607 2.607 0 0 1-1.889-.823 2.89 2.89 0 0 1-.782-1.99c0-.745.281-1.461.782-1.988a2.603 2.603 0 0 1 1.89-.824H25.81v5.626Zm21.045-16.283a2.607 2.607 0 0 1 1.89.825c.501.527.783 1.242.783 1.987 0 .747-.282 1.463-.783 1.99a2.603 2.603 0 0 1-1.89.824H30.61v-5.626h16.243Zm-21.045-5.038H8.192a2.606 2.606 0 0 1-1.891-.824 2.89 2.89 0 0 1-.781-1.99c0-.745.281-1.462.782-1.989a2.602 2.602 0 0 1 1.89-.824H25.81v5.627h-.001Zm22.817-10.667H30.597V8.094c0-.737.28-1.446.784-1.984a2.61 2.61 0 0 1 1.885-.825h23.002a8.443 8.443 0 0 1-2.9 4.264 7.756 7.756 0 0 1-4.734 1.639H48.625ZM84.375 53.002v-8.085h-7.842v8.084H72.58V33.462h3.952v7.791h7.866v-7.79h3.952v19.54h-3.976V53Zm12.963.35a8.118 8.118 0 0 0 5.538-1.962l-1.586-2.443a5.456 5.456 0 0 1-3.566 1.376c-2.318 0-3.62-1.432-3.867-3.166h9.993v-.897c0-4.6-2.699-7.758-6.736-7.758a6.562 6.562 0 0 0-2.7.537 6.85 6.85 0 0 0-2.28 1.606 7.263 7.263 0 0 0-1.502 2.42 7.558 7.558 0 0 0-.479 2.846c.007 4.543 3.093 7.441 7.185 7.441Zm3.094-8.785h-6.62a3.577 3.577 0 0 1 1.129-2.14 3.248 3.248 0 0 1 2.18-.85c.8 0 1.573.302 2.182.85a3.584 3.584 0 0 1 1.129 2.14ZM125.096 53V33.462h-3.534v19.54h3.534Zm7.967.351a4.211 4.211 0 0 0 2.947-.91l-.773-2.844c-.335.3-.774.459-1.223.44-.773 0-1.221-.676-1.221-1.58v-6.357h2.729v-3.257h-2.729v-3.858h-3.512v3.866h-2.228v3.257h2.228v7.328c0 2.572 1.307 3.915 3.789 3.915h-.007Zm-17.936-12.903a5.056 5.056 0 0 0-1.78-1.453 4.798 4.798 0 0 0-2.204-.486c-3.45 0-5.954 2.704-5.954 7.425 0 4.722 2.506 7.425 5.954 7.425a4.817 4.817 0 0 0 2.208-.498 5.078 5.078 0 0 0 1.776-1.463v1.629h3.535V38.85h-3.535V40.449Zm0 8.14c-.32.456-.745.826-1.242 1.08a3.22 3.22 0 0 1-1.573.353c-2.197 0-3.45-1.904-3.45-4.127 0-2.222 1.253-4.072 3.45-4.072a3.252 3.252 0 0 1 1.573.351c.49.248.915.617 1.242 1.075v5.34Zm88.411-31.913c-1.547-.334-2.413-.555-2.413-1.223 0-.666.82-1.245 1.95-1.245a5.684 5.684 0 0 1 3.974 1.629l1.493-2.679a8.361 8.361 0 0 0-5.491-2.002c-3.806 0-5.538 2.336-5.538 4.501 0 3.46 3.094 4.071 5.298 4.535 1.547.31 2.545.562 2.545 1.368s-.773 1.359-2.088 1.359a7.961 7.961 0 0 1-4.641-1.896l-1.594 2.71a8.698 8.698 0 0 0 6.065 2.271c3.55 0 5.839-1.798 5.839-4.59.008-3.648-3.24-4.306-5.399-4.738Zm-7.619 4.737c0 2.793-2.319 4.591-5.838 4.591a8.696 8.696 0 0 1-6.041-2.27l1.547-2.72a7.968 7.968 0 0 0 4.64 1.897c1.33 0 2.089-.497 2.089-1.36 0-.862-1.006-1.058-2.544-1.366-2.236-.457-5.298-1.076-5.298-4.536 0-2.173 1.732-4.501 5.538-4.501a8.364 8.364 0 0 1 5.491 2.002l-1.493 2.677a5.69 5.69 0 0 0-3.976-1.627c-1.129 0-1.949.522-1.949 1.246 0 .725.874.888 2.414 1.222 2.165.438 5.42 1.098 5.42 4.745ZM72.557 6.108h13.149v3.664h-9.173v4.126h8.986v3.664h-8.986v4.421h9.18v3.664H72.565l-.008-19.54Zm29.885 12.447a7.545 7.545 0 0 0 .472 2.905 7.24 7.24 0 0 0 1.54 2.46 6.82 6.82 0 0 0 2.349 1.601c.881.36 1.822.52 2.763.475a5.924 5.924 0 0 0 2.966-.586 6.26 6.26 0 0 0 2.347-1.994l-2.318-2.255c-.321.479-.746.87-1.241 1.133a3.256 3.256 0 0 1-1.599.389c-2.142 0-3.644-1.67-3.644-4.126 0-2.46 1.502-4.071 3.644-4.071a3.13 3.13 0 0 1 1.609.37c.496.266.92.662 1.229 1.152l2.32-2.288a6.323 6.323 0 0 0-2.356-1.967 5.983 5.983 0 0 0-2.957-.582 6.516 6.516 0 0 0-2.749.47c-.883.358-1.681.899-2.342 1.588a7.218 7.218 0 0 0-1.544 2.44 7.539 7.539 0 0 0-.489 2.886Zm20.242 7.441a6.517 6.517 0 0 0 2.762-.473 6.803 6.803 0 0 0 2.35-1.602 7.238 7.238 0 0 0 1.54-2.46 7.532 7.532 0 0 0 .47-2.906 7.688 7.688 0 0 0-2.082-5.292c-1.334-1.405-3.142-2.194-5.029-2.194a6.933 6.933 0 0 0-5.028 2.194 7.689 7.689 0 0 0-2.084 5.292 7.5 7.5 0 0 0 .469 2.9c.339.915.86 1.751 1.532 2.459a6.789 6.789 0 0 0 2.343 1.603 6.5 6.5 0 0 0 2.757.48Zm0-3.312c-2.197 0-3.426-1.905-3.426-4.129 0-2.221 1.221-4.07 3.426-4.07 2.204 0 3.449 1.905 3.449 4.07 0 2.167-1.253 4.136-3.449 4.136v-.008.001ZM96.34 11.147a5.918 5.918 0 0 0-2.427.492 6.182 6.182 0 0 0-2.051 1.454v-1.628h-3.534v14.182h3.534v-9.77c.353-.43.79-.779 1.278-1.022a3.716 3.716 0 0 1 1.56-.386c1.5 0 2.476.676 2.476 2.637v8.541h3.533v-9.99c0-2.751-1.421-4.51-4.369-4.51Zm51.194 0a5.48 5.48 0 0 0-2.521.668 5.8 5.8 0 0 0-1.981 1.774c-.534-1.505-1.763-2.443-3.658-2.443a5.885 5.885 0 0 0-4.208 1.946v-1.629h-3.534v14.184h3.534v-9.77a3.58 3.58 0 0 1 1.151-1 3.388 3.388 0 0 1 1.441-.408c1.446 0 2.002.936 2.002 2.255v8.956h3.566v-9.77a3.57 3.57 0 0 1 1.151-1 3.39 3.39 0 0 1 1.441-.41c1.446 0 2.002.938 2.002 2.257v8.955h3.566v-10.29c0-2.899-1.476-4.274-3.952-4.274Zm10.055.35h-3.535v19.54h3.535v-7.002a5.066 5.066 0 0 0 1.777 1.463c.69.34 1.444.51 2.205.498 3.45 0 5.956-2.702 5.956-7.424s-2.506-7.424-5.956-7.424a4.801 4.801 0 0 0-2.204.488 5.042 5.042 0 0 0-1.778 1.457v-1.596Zm0 4.388a3.406 3.406 0 0 1 1.242-1.074 3.235 3.235 0 0 1 1.573-.35c2.197 0 3.45 1.904 3.45 4.07 0 2.166-1.253 4.127-3.45 4.127a3.242 3.242 0 0 1-1.575-.352 3.423 3.423 0 0 1-1.24-1.08v-5.341Zm21.137-2.792a5.044 5.044 0 0 0-1.771-1.453 4.793 4.793 0 0 0-2.196-.492c-3.449 0-5.955 2.702-5.955 7.424s2.506 7.424 5.955 7.424a4.82 4.82 0 0 0 2.206-.496 5.118 5.118 0 0 0 1.778-1.465v1.629h3.534V11.497h-3.534l-.017 1.596Zm0 8.142a3.399 3.399 0 0 1-1.241 1.08 3.254 3.254 0 0 1-1.574.353c-2.196 0-3.449-1.905-3.449-4.13 0-2.221 1.253-4.07 3.449-4.07a3.255 3.255 0 0 1 1.573.352c.49.248.916.615 1.242 1.073v5.342ZM145.987 38.51a5.913 5.913 0 0 0-2.43.487 6.176 6.176 0 0 0-2.056 1.45v-6.985h-3.535v19.54h3.535v-9.77a3.836 3.836 0 0 1 1.276-1.025 3.656 3.656 0 0 1 1.562-.383c1.502 0 2.476.676 2.476 2.638v8.54h3.534v-9.989c.008-2.753-1.407-4.503-4.362-4.503Z" fill="#000"/></svg>
