<svg width="470" height="60" viewBox="0 0 470 60" fill="none" xmlns="http://www.w3.org/2000/svg"><path d="M0 0h27.902v8.929H10.044v11.16h16.742v8.928H10.044v18.974H0V0Zm34.598 40.178h5.58V20.09h-5.58V11.16h14.51v29.018h4.464v7.813H34.598v-7.813ZM40.178 0h8.93v8.929h-8.93V0Zm159.599 40.178h5.58V20.09h-5.58V11.16h14.508v29.018h4.465v7.813h-18.973v-7.813ZM205.357 0h8.928v8.929h-8.928V0Zm147.321 40.178h5.581V20.09h-5.581V11.16h14.509v29.018h4.464v7.813h-18.973v-7.813ZM358.259 0h8.928v8.929h-8.928V0ZM60.268 30.134V11.16h8.928v16.742l4.465 11.138h1.115l4.465-11.138V11.16h8.928v18.974L80.358 47.99H68.08l-7.812-17.857Zm63.616 17.857h-15.156c-9.141 0-13.862-4.252-13.862-13.203V24.553c0-8.448 4.8-14.509 14.509-14.509 10.413 0 14.509 5.66 14.509 15.625v7.813h-18.973v1.942c0 2.924 1.116 4.754 3.817 4.754h15.156v7.813Zm-18.973-22.322h8.928v-1.73c0-2.924-1.183-6.082-4.609-6.082-3.114 0-4.319 2.455-4.319 6.082v1.73Zm34.598-16.74h-11.161V0h32.366v8.929h-11.161V47.99h-10.044V8.929Zm85.937 39.062V11.16h8.929v4.463c1.272-2.734 4.185-4.464 8.058-4.464h3.103v8.929h-6.697c-3.169 0-4.464 1.05-4.464 4.353V47.99h-8.929Zm47.991 0h-5.401c-7.936 0-11.34-4.118-11.34-12.444V20.089H250v-8.928h6.696V3.348h8.929v7.813h7.813v8.928h-7.813l-.079 15.547c0 2.478 1.038 4.543 4.085 4.543h3.806v7.812Zm196.429 0h-5.402c-7.935 0-11.339-4.118-11.339-12.444V20.089h-6.697v-8.928h6.697V3.348h8.928v7.813h7.813v8.928h-7.813l-.078 15.547c0 2.478 1.038 4.543 4.085 4.543h3.806v7.812ZM283.772 60l5.145-10.603-8.784-19.263V11.16h8.929v16.742l4.464 11.16h1.116l4.465-11.16V11.16h8.928v18.974L294.308 60h-10.536Zm33.192-60h27.902v8.929h-17.858v10.044h16.742v8.929h-16.742v11.16h17.858v8.929h-27.902V0Zm59.152 53.571V51.34h17.968c2.233 0 3.237-.2 3.237-1.417v-.38c0-1.205-1.016-1.551-3.237-1.551h-14.62v-5.58l5.58-5.58c-5.904-1.653-8.928-6.061-8.928-12.278v-1.116c0-8.437 4.955-13.393 15.625-13.393 2.254.065 4.488.44 6.64 1.116l4.52-6.696 5.58 3.348-4.464 6.697c1.529 2.154 3.348 5.502 3.348 8.928v1.116c0 7.813-3.683 11.897-13.392 12.277l-3.348 4.464h6.696c6.607 0 10.044 2.924 10.044 8.571v.123c0 5.647-3.024 9.163-9.62 9.163h-14.509c-4.788 0-7.12-2.053-7.12-5.58Zm21.205-27.902v-3.348c0-3.683-1.485-4.464-5.58-4.464-4.096 0-5.581.781-5.581 4.464v3.348c0 3.683 1.551 4.465 5.581 4.465 4.029 0 5.58-.781 5.58-4.465Zm26.786 22.322h-8.929V0h8.929v15.625c1.272-2.98 3.794-4.464 7.812-4.464 6.987 0 10.045 3.437 10.045 12.008v24.822h-8.929V24.553c0-3.493-1.194-5.58-4.464-5.58-3.27 0-4.464 2.087-4.464 5.58v23.438Zm-248.884 0h-8.928V0h8.928v15.625c1.272-2.98 4.364-4.464 8.359-4.464 6.987 0 9.498 3.493 9.498 12.065V47.99h-8.928V23.438c0-3.493-1.194-4.955-4.464-4.955-3.27 0-4.465 2.522-4.465 6.015v23.493Z" fill="#000"/></svg>
