<svg width="285" height="60" viewBox="0 0 285 60" fill="none" xmlns="http://www.w3.org/2000/svg"><path d="M277.604 22.122v-4.025h-1.268v-.598h3.237v.598h-1.267v4.027l-.702-.002Zm2.504 0v-4.625h.891l1.144 3.752 1.106-3.754h.902v4.627h-.633v-3.654l-1.04 3.654h-.692l-1.079-3.584v3.584h-.599ZM269.974 52.796a9.384 9.384 0 0 1-7.473 3.546c-3.828 0-6.527-1.886-8.096-5.657-1.129-2.677-1.707-6.8-1.734-12.373h23.639c-.162-4.729-1.047-8.687-2.656-11.875-2.978-5.96-7.443-8.939-13.393-8.939-3.994 0-7.413 1.59-10.257 4.772-3.598 4.027-5.398 9.388-5.398 16.085 0 7.292 1.8 12.871 5.398 16.736 2.901 3.091 6.619 4.637 11.153 4.637 6.158 0 11.054-3.644 14.688-10.932l-2.575-1.349a25.379 25.379 0 0 1-3.296 5.35Zm-16.341-24.83c1.371-4.946 3.721-7.42 7.051-7.424 2.954 0 5.113 2.012 6.477 6.036a27.856 27.856 0 0 1 1.142 8.697h-15.555a28.266 28.266 0 0 1 .885-7.304v-.006ZM237.192 54.788c-.721-.816-1.082-2.795-1.082-5.936V.282l-12.662.59v2.663h.971c1.631 0 2.741.35 3.331 1.053.721.788 1.082 2.747 1.082 5.875v38.374c0 3.153-.361 5.132-1.082 5.937-.586.72-1.696 1.08-3.331 1.08h-1.391v2.657h18.866v-2.656H240.5c-1.564-.01-2.692-.361-3.308-1.069v.002ZM209.91 9.898a4.596 4.596 0 0 0 3.374-1.393 4.635 4.635 0 0 0 1.35-3.342 4.553 4.553 0 0 0-1.397-3.331 4.36 4.36 0 0 0-3.24-1.393 4.653 4.653 0 0 0-3.374 1.35 4.443 4.443 0 0 0-1.44 3.374 4.559 4.559 0 0 0 1.397 3.342 4.466 4.466 0 0 0 3.332 1.393h-.002ZM215.268 54.782c-.72-.78-1.079-2.76-1.079-5.936V18.13l-12.642.612v2.697h.965c1.619 0 2.748.34 3.341 1.01.698.79 1.053 2.748 1.053 5.875v20.512c0 3.152-.355 5.133-1.053 5.937-.593.72-1.707 1.081-3.341 1.081h-1.375v2.656h18.892v-2.656h-1.393c-1.659-.01-2.781-.37-3.366-1.075l-.002.002ZM182.758 17.884a11.528 11.528 0 0 0-7.428 2.574 10.091 10.091 0 0 0-2.829 3.886V.272l-12.33.596v2.66h.637c1.632 0 2.744.351 3.337 1.053.702.76 1.053 2.703 1.053 5.83v39.558c0 3.55-.127 5.9-.38 7.05-.03.167-.183.665-.463 1.475h2.866a54.195 54.195 0 0 1 1.82-2.744c.614-.9 1.177-1.348 1.683-1.348a2.523 2.523 0 0 1 1.479.679c1.469 1.21 2.419 1.954 2.872 2.236a12.773 12.773 0 0 0 7.051 2.066c4.728 0 8.541-1.955 11.438-5.867 3.099-4.193 4.649-9.4 4.649-15.622 0-6.528-1.731-11.721-5.194-15.58a13.226 13.226 0 0 0-10.261-4.43Zm-1.518 38.46a7.096 7.096 0 0 1-4.011-1.175 9.284 9.284 0 0 1-3.292-3.893c-1.44-3.067-2.16-7.416-2.16-13.048 0-7.288 1.519-12.327 4.557-15.116a7.795 7.795 0 0 1 5.3-2.211c2.674 0 4.687 1.407 6.04 4.223 1.441 3.04 2.161 7.344 2.161 12.915-.004 12.203-2.864 18.305-8.579 18.305h-.016ZM140.584 17.508a15.934 15.934 0 0 0-13.127 6.375c-2.927 3.713-4.39 8.625-4.39 14.737 0 6.11 1.463 11.023 4.39 14.737 3.318 4.254 7.611 6.377 12.878 6.369 5.572 0 10.02-2.123 13.342-6.37 2.924-3.746 4.386-8.687 4.386-14.822 0-6.046-1.462-10.93-4.386-14.651a15.897 15.897 0 0 0-13.093-6.375Zm0 39.44c-3.091 0-5.342-1.44-6.752-4.32-1.58-3.257-2.371-8.072-2.371-14.445 0-7.677 1.281-12.841 3.844-15.493a7.17 7.17 0 0 1 5.275-2.408 6.69 6.69 0 0 1 3.503.971 9.315 9.315 0 0 1 3.574 4.238c1.323 2.95 1.985 7.27 1.985 12.956.015 12.336-3.004 18.503-9.058 18.5ZM92.688 43.246 80.358.861H63.624v2.758h1.62a9.801 9.801 0 0 1 2.951.335 3.331 3.331 0 0 1 2.242 2.607 18.87 18.87 0 0 1 .253 3.925v33.399a50.87 50.87 0 0 1-.297 6.623c-.28 1.716-.902 3-1.863 3.844a5.1 5.1 0 0 1-3.497 1.348H63.64v2.787h17.858V55.7h-1.14c-3.128 0-5.107-1.504-5.937-4.512-.281-1.08-.422-3.515-.422-7.303V6.098l15.196 52.387h2.66l15.239-52.36v41.089a35.473 35.473 0 0 1-.253 4.778 3.78 3.78 0 0 1-1.052 2.403c-.902.875-2.434 1.305-4.605 1.305h-.734v2.787h21.665V55.7h-1.184c-2.986 0-4.787-.879-5.397-2.656-.315-.959-.465-2.897-.465-5.83V12.126a37.598 37.598 0 0 1 .248-4.815 3.717 3.717 0 0 1 1.08-2.364c.875-.898 2.39-1.344 4.561-1.344h1.183V.86h-16.875L92.688 43.246ZM41.265 27.373h-5.627v11.675h11.67V27.373h-6.043Z" /><path d="M.616.87.039 21.207l3.06.54c.565-5.992 2.136-10.44 4.712-13.341 2.699-3.032 6.446-4.619 11.244-4.754v42.52c0 3.721-.538 6.128-1.62 7.246-.921.949-2.482 1.526-4.68 1.742-.646.055-1.756.082-3.328.082v3.24h28.447v-3.24c-1.577 0-2.699 0-3.337-.082-2.197-.216-3.778-.793-4.674-1.742-1.08-1.118-1.62-3.525-1.62-7.246V3.63c4.799.135 8.54 1.722 11.251 4.755 2.576 2.901 4.148 7.348 4.717 13.34l3.056-.54L46.712.87H.616Z" /><path d="M11.717 39.048V27.373H.042v11.675h11.675Z" /></svg>
