<svg width="295" height="60" viewBox="0 0 295 60" fill="none" xmlns="http://www.w3.org/2000/svg"><path d="M293.807 35.747c-2.82-3.29-6.815-5.17-11.045-4.935-6.58 0-11.985 2.585-11.985 8.695 0 10.105 16.685 6.345 16.685 11.045 0 1.41-2.115 3.055-5.17 3.055-3.055.235-5.875-.94-7.755-3.29l-4.935 3.76c3.525 3.525 8.225 5.17 12.925 4.935 6.11 0 11.985-2.82 11.985-9.4 0-10.105-16.92-6.11-16.92-10.81 0-1.645 1.88-2.585 4.935-2.585 2.82-.235 5.405 1.41 6.815 3.76l4.465-4.23Zm-33.37 13.16c0 3.525-3.995 4.935-6.815 4.935-2.35 0-4.23-1.41-4.23-3.29 0-2.585 2.115-3.29 4.465-3.76l3.525-.705c1.175-.235 2.115-.47 3.055-.94v3.76Zm6.345-9.165c0-7.755-5.875-8.93-11.515-8.93-5.875 0-11.515 2.35-11.515 8.695l6.58.235c0-2.82 1.175-3.995 4.935-3.995 2.82 0 5.17.705 5.17 3.525v.705c-2.35.705-4.7 1.175-7.05 1.645l-2.82.47c-3.995.705-8.225 3.055-8.225 8.46 0 4.7 3.76 8.46 8.46 8.46h.705c3.29 0 6.345-1.175 8.695-3.055 0 .94.235 1.645.705 2.35h6.815c-.705-1.41-1.175-3.055-.94-4.465v-14.1Zm-67.68 18.8h6.58v-14.1c0-3.76 2.115-7.285 5.64-7.285 3.055 0 4.465 2.115 4.465 5.17v16.45h6.58v-14.1c0-3.76 2.115-7.285 5.875-7.285 3.055 0 4.465 2.115 4.465 5.17v16.45h6.58V39.977c0-5.875-3.525-8.695-9.4-8.695-3.29 0-6.345 1.41-8.225 3.995-1.645-2.82-4.7-4.465-7.99-3.995-3.055 0-5.875 1.175-7.755 3.29v-2.585h-6.58v26.555h-.235Zm-16.215-21.62c4.7 0 7.05 3.995 7.05 8.225 0 4.23-2.35 8.225-7.05 8.225-4.7 0-7.05-3.995-7.05-8.225 0-4.23 2.35-8.225 7.05-8.225Zm0-5.875c-8.695 0-13.865 6.11-13.865 14.1 0 7.99 5.17 14.1 13.865 14.1s13.865-6.11 13.865-14.1c0-7.99-5.17-14.1-13.865-14.1Zm-41.595 27.495h6.58V44.677c0-3.29 1.41-7.52 6.345-7.52 3.29 0 4.7 1.645 4.7 5.405v15.98h6.58v-17.86c0-7.755-5.17-9.635-9.87-9.635-3.055-.235-5.875.94-7.755 3.29v-13.63h-6.58v37.835Zm-19.975 0h7.05V27.287h10.34v-6.58h-27.965v6.58h10.34l.235 31.255Zm-18.565 0h7.05v-7.285h-7.05v7.285ZM87.477 31.517h-3.995v4.7h3.995v15.98c0 3.995 1.88 6.58 7.05 6.58 1.645 0 3.525-.235 5.17-.705v-5.405c-.94.235-1.88.235-2.82.235-2.585 0-2.82-1.175-2.82-3.29v-13.63h5.875v-4.7h-5.875v-9.635h-6.58v9.87Zm-37.6 19.975a19.436 19.436 0 0 0 16.45 7.99c7.99 0 16.685-3.29 16.685-12.455 0-7.285-5.405-9.4-11.045-10.81l-4.7-.94c-4.23-.94-7.755-1.645-7.755-4.935 0-2.585 3.055-4.23 7.285-4.23 3.995-.235 7.99 1.88 9.87 5.405l5.875-4.465c-3.76-4.935-9.635-7.755-15.745-7.52-7.05 0-14.805 3.76-14.805 11.75 0 7.05 5.405 9.165 11.28 10.575l4.23.94c4.935 1.175 7.755 2.115 7.755 4.935 0 3.76-4.465 4.935-7.99 4.935-4.465.235-8.93-1.88-11.515-5.64l-5.875 4.465ZM179.168 12.278h2.115v-4.7h4.7v-1.88h-4.7v-2.82h5.405V.998h-7.52v11.28ZM170.003.763c-3.055 0-5.405 2.585-5.405 5.64v.47c-.235 3.055 1.88 5.64 4.935 5.875 3.055.235 5.64-1.88 5.875-4.935v-.94c.235-3.055-2.115-5.64-4.935-5.875-.235-.235-.47-.235-.47-.235Zm0 1.88c2.35 0 3.29 1.88 3.29 3.995s-.94 3.995-3.29 3.995-3.29-1.88-3.29-3.995.94-3.995 3.29-3.995Zm-17.625 9.635h2.115V7.813l3.76-6.815h-2.35l-2.35 4.7-2.35-4.7h-2.35l3.76 6.815-.235 4.465Zm-11.515 0h2.115v-9.4h3.055V.998h-8.225v1.88h3.055v9.4Zm-8.695 0h2.115V.998h-2.115v11.28Zm-13.63-2.115c1.175 1.645 3.055 2.35 4.935 2.35 2.35 0 4.935-.94 4.935-3.76 0-2.115-1.645-2.82-3.29-3.29l-1.41-.235c-1.175-.235-2.35-.47-2.35-1.41 0-.705.94-1.175 2.115-1.175 1.175 0 2.35.47 3.055 1.645l1.645-1.41c-1.175-1.41-2.82-2.35-4.7-2.35-2.115 0-4.465 1.175-4.465 3.525 0 2.115 1.645 2.82 3.29 3.055l1.175.235c1.41.235 2.35.705 2.35 1.41 0 1.175-1.41 1.41-2.35 1.41-1.41 0-2.585-.705-3.525-1.645l-1.41 1.645Zm-8.93-7.285h1.88c1.41 0 2.115.705 2.115 1.645 0 .94-.705 1.645-1.645 1.645h-2.585v-3.29h.235Zm-2.115 9.4h2.115v-4.23h2.115l2.115 4.23h2.35l-2.585-4.465c1.41-.47 2.35-1.88 2.35-3.29 0-1.88-1.41-3.525-3.29-3.525h-5.17v11.28Zm-11.985 0h8.46v-1.88h-6.345V7.343h5.405v-1.88h-5.405V2.878h5.875V.998h-7.99v11.28Zm-9.4 0h2.82l3.29-11.28h-2.115l-2.585 8.93-2.585-8.93h-2.115l3.29 11.28Zm-8.695 0h2.115V.998h-2.115v11.28Zm-13.16 0h1.88v-7.99l4.7 7.99h2.115V.998h-1.88v7.99l-4.7-7.99h-1.88l-.235 11.28ZM60.023.998h-2.115v7.285c0 1.41-.47 2.35-2.35 2.35-1.88 0-2.35-.94-2.35-2.35V.998h-2.115v7.755c0 2.35 1.88 3.76 4.465 3.76s4.465-1.41 4.465-3.76V.998ZM41.775 23.532c-.47 0-.705.235-.94.47-1.41 1.175-3.525 1.175-4.935 0a3.607 3.607 0 0 0-3.76 0c-1.41 1.175-3.525 1.175-4.935 0a3.607 3.607 0 0 0-3.76 0c-.47.235-.705.47-1.175.705v8.225h-2.35v-8.225c-.47 0-.94-.235-1.175-.705-.47-.47-1.175-.705-1.88-.705-.705 0-1.41.235-1.88.705-.705.47-1.645.94-2.585.94s-1.88-.235-2.585-.94c-.235-.47-.94-.705-1.645-.705-.705 0-1.41.235-1.88.705-.705.47-1.645.94-2.585.94s-1.88-.235-2.35-.94c-.47-.235-.705-.47-1.175-.47-.235 4.935.235 9.635 1.645 14.335h12.69v1.175c0 .47 0 .94.235 1.175H2.765c3.29 8.225 9.165 14.805 16.92 19.035v-14.1h2.35v14.1c7.755-3.995 13.865-10.81 16.92-19.035H26.97c0-.47.235-.705.235-1.175v-1.175H40.13c1.41-4.7 1.88-9.4 1.645-14.335Zm-27.73 3.995c.47.94 1.41 1.645 2.35 2.115 1.175.47 2.35 1.41 2.82 2.585.235.235.235.47.47.705-.94.235-2.115.705-2.82 1.41-.235-.235-.235-.705-.235-.94-.235-1.175-.705-2.35-1.645-3.29-.47-.705-.94-1.645-.94-2.585Zm0 8.93c-.47-1.175-1.41-1.88-2.585-2.585-.705-.47-1.41-1.175-1.645-2.115.705.705 1.88 1.175 2.82 1.175 1.41 0 2.585.705 3.525 1.645l.235.235c-.705.705-1.175 1.88-1.645 2.82-.235-.47-.47-.705-.705-1.175ZM9.58 46.092c.94-.47 1.645-1.41 2.115-2.35.47-1.175 1.41-2.35 2.82-2.82.235-.235.47-.235.705-.47.235.94.705 2.115 1.645 2.82-.47.235-.705.235-1.175.235-1.175.235-2.35.705-3.29 1.645-1.175.705-1.88.94-2.82.94Zm8.93 0c-1.175.47-1.88 1.41-2.585 2.585-.47.705-1.175 1.41-2.115 1.645.705-.705.94-1.88 1.175-2.82 0-1.41.705-2.585 1.645-3.525l.235-.235c.705.705 1.88 1.175 2.82 1.41-.47.47-.705.705-1.175.94Zm4.935-14.335c1.175-.47 1.88-1.41 2.585-2.585.47-.705 1.175-1.41 2.115-1.645-.705.705-.94 1.88-1.175 2.82 0 1.41-.705 2.585-1.645 3.525 0 0-.235.235-.235.47-.705-.705-1.88-1.175-2.82-1.41l1.175-1.175Zm4.465 18.8c-.47-.94-1.41-1.645-2.35-2.115-1.175-.47-2.35-1.41-2.82-2.585-.235-.235-.235-.47-.47-.705.94-.235 2.115-.705 2.82-1.41.235.235.235.705.235.94.235 1.175.705 2.35 1.645 3.29.47.705.94 1.645.94 2.585Zm0-8.93c.47 1.175 1.41 1.88 2.585 2.585.705.47 1.41 1.175 1.645 2.115-.94-.705-1.88-.94-2.82-1.175-1.41 0-2.585-.705-3.525-1.645l-.235-.235c.705-.705 1.175-1.645 1.645-2.82.235.47.47.705.705 1.175Zm2.585-7.52c-.47 1.175-1.41 2.35-2.82 2.82-.235.235-.47.235-.705.47-.235-.94-.705-1.88-1.41-2.585l-.235-.235c.47-.235.705-.235 1.175-.235 1.175 0 2.35-.705 3.29-1.645.705-.47 1.645-.94 2.585-.94-.705.705-1.41 1.41-1.88 2.35ZM3.945 21.676c.705 0 1.41-.235 1.88-.705.705-.47 1.645-.94 2.35-.705.94 0 1.645.235 2.35.705.47.47 1.175.705 1.88.705.705 0 1.41-.235 1.88-.705.705-.47 1.645-.94 2.35-.94.94 0 1.645.235 2.35.94.47.47 1.175.705 1.88.705.705 0 1.41-.235 1.88-.705 1.41-1.175 3.29-1.175 4.935 0a3.607 3.607 0 0 0 3.76 0c1.41-1.175 3.29-1.175 4.935 0a3.607 3.607 0 0 0 3.76 0c.47-.47.94-.705 1.645-.705L35.2 6.871c-.94.705-2.115 1.175-3.29.94-2.115 0-2.35-.94-5.64-.94-1.88-.235-3.525.47-4.935 1.645-1.645-1.175-3.525-1.88-5.17-1.645-3.29 0-3.525.94-5.64.94-1.175.235-2.35 0-3.29-.94L.42 20.266c.705 0 1.175.235 1.645.705.705.47 1.175.705 1.88.705ZM26.27 9.221c3.055 0 3.525.94 5.64.94.94 0 1.88 0 2.82-.47l3.76 7.52s-.47.47-3.525.47c-3.055 0-3.525-1.645-8.46-1.645-1.41 0-2.585.47-3.76 1.41l-1.645-6.58c1.41-1.175 3.29-1.88 5.17-1.645Zm-18.8.47c.94.47 1.88.47 2.82.47 2.115 0 2.585-.94 5.64-.94 1.88-.235 3.76.47 5.17 1.645l-1.88 6.815c-.94-.94-2.35-1.41-3.76-1.41-4.7 0-5.17 1.645-8.46 1.645-3.29 0-3.29-.47-3.29-.47l3.76-7.755Z" fill="#000"/></svg>
