<svg width="222" height="60" viewBox="0 0 222 60" fill="none" xmlns="http://www.w3.org/2000/svg"><path d="M42.603 25.602H24.015a.87.87 0 0 0-.868.87v9.087c0 .48.389.87.868.87h7.251v11.29s-1.628.556-6.13.556c-5.31 0-12.728-1.94-12.728-18.254 0-16.316 7.725-18.463 14.977-18.463 6.278 0 8.982 1.105 10.703 1.638.54.165 1.04-.373 1.04-.853l2.075-8.78a.81.81 0 0 0-.333-.679C40.172 2.386 35.908 0 25.137 0 12.728 0 0 5.28 0 30.657c0 25.38 14.573 29.161 26.853 29.161 10.168 0 16.336-4.345 16.336-4.345.254-.14.282-.495.282-.658V26.472c0-.48-.389-.87-.868-.87Zm95.74-22.425a.865.865 0 0 0-.862-.874h-10.466a.87.87 0 0 0-.867.874l.003 20.225h-16.314V3.177a.867.867 0 0 0-.863-.874H98.508a.87.87 0 0 0-.864.874V57.94c0 .484.388.877.864.877h10.466a.87.87 0 0 0 .863-.877V34.517h16.314l-.029 23.424c0 .484.389.877.867.877h10.491a.87.87 0 0 0 .863-.877V3.177Zm-76.025 7.322c0-3.769-3.021-6.814-6.748-6.814-3.724 0-6.748 3.045-6.748 6.814 0 3.764 3.024 6.818 6.747 6.818 3.728 0 6.75-3.054 6.75-6.818Zm-.83 35.919v-25.28a.87.87 0 0 0-.866-.872H50.19c-.478 0-.907.494-.907.973v36.218c0 1.065.664 1.381 1.522 1.381h9.4c1.031 0 1.284-.506 1.284-1.398V46.418Zm116.855-26.152h-10.385a.87.87 0 0 0-.864.875v26.853s-2.639 1.93-6.384 1.93c-3.744 0-4.738-1.699-4.738-5.365V21.14a.87.87 0 0 0-.864-.875h-10.54a.873.873 0 0 0-.866.875v25.191c0 10.891 6.07 13.556 14.421 13.556 6.85 0 12.373-3.785 12.373-3.785s.263 1.994.382 2.23c.119.237.429.475.764.475l6.706-.03a.872.872 0 0 0 .865-.874l-.003-36.763a.871.871 0 0 0-.867-.875Zm23.929 29.68c-3.602-.11-6.046-1.745-6.046-1.745V30.858s2.411-1.477 5.368-1.742c3.74-.335 7.344.795 7.344 9.717 0 9.408-1.626 11.264-6.666 11.112Zm4.096-30.857c-5.898 0-9.91 2.632-9.91 2.632V3.177a.868.868 0 0 0-.864-.874h-10.495a.87.87 0 0 0-.865.874V57.94c0 .484.388.877.866.877h7.282c.328 0 .576-.17.759-.465.181-.294.443-2.525.443-2.525s4.291 4.067 12.416 4.067c9.537 0 15.007-4.838 15.007-21.719 0-16.88-8.736-19.087-14.639-19.087ZM91.61 20.172h-7.85L83.746 9.8c0-.392-.202-.588-.656-.588H72.393c-.416 0-.64.183-.64.582v10.718s-5.36 1.294-5.723 1.399a.87.87 0 0 0-.627.834v6.736a.87.87 0 0 0 .865.875h5.486v16.202c0 12.035 8.441 13.217 14.138 13.217 2.602 0 5.716-.836 6.23-1.026.31-.114.491-.436.491-.785l.01-7.409a.884.884 0 0 0-.869-.874c-.457 0-1.627.186-2.832.186-3.856 0-5.163-1.793-5.163-4.114V30.356h7.85a.87.87 0 0 0 .867-.875v-8.436a.868.868 0 0 0-.866-.873Z" /></svg>
