<svg width="60" height="60" viewBox="0 0 60 60" fill="none" xmlns="http://www.w3.org/2000/svg"><path fill-rule="evenodd" clip-rule="evenodd" d="M0 0h60v60H0V0Zm45.867 50.299c-2.781 0-4.354-1.45-5.562-3.424l-4.582 2.662c1.655 3.27 5.038 5.766 10.274 5.766 5.355 0 9.343-2.781 9.343-7.857 0-4.709-2.705-6.803-7.495-8.857l-1.41-.604c-2.419-1.048-3.466-1.733-3.466-3.424 0-1.369 1.046-2.416 2.698-2.416 1.619 0 2.662.683 3.628 2.416l4.39-2.82c-1.856-3.266-4.434-4.513-8.018-4.513-5.036 0-8.258 3.219-8.258 7.447 0 4.59 2.703 6.762 6.772 8.495l1.41.605c2.57 1.125 4.104 1.81 4.104 3.743 0 1.613-1.492 2.781-3.828 2.781Zm-21.85-.035c-1.938 0-2.744-1.329-3.63-2.9l-4.589 2.778c1.33 2.814 3.944 5.15 8.458 5.15 4.996 0 8.42-2.657 8.42-8.495V27.55h-5.639v19.17c0 2.819-1.168 3.544-3.02 3.544Z" /></svg>
