<svg width="476" height="59" viewBox="0 0 476 59" fill="none" xmlns="http://www.w3.org/2000/svg"><path fill-rule="evenodd" clip-rule="evenodd" d="M49.09 0C36 0 27.819 6.545 24.546 19.636c4.91-6.545 10.637-9 17.182-7.363 3.735.933 6.404 3.643 9.359 6.642 4.812 4.885 10.383 10.54 22.55 10.54 13.091 0 21.273-6.546 24.546-19.637-4.91 6.546-10.636 9-17.182 7.364-3.734-.933-6.404-3.644-9.358-6.642C66.829 5.655 61.258 0 49.09 0ZM24.546 29.454C11.456 29.454 3.274 36 0 49.091c4.91-6.546 10.636-9 17.182-7.364 3.734.935 6.404 3.644 9.358 6.642 4.813 4.886 10.384 10.54 22.55 10.54 13.092 0 21.274-6.545 24.546-19.636-4.909 6.545-10.636 9-17.181 7.363-3.735-.932-6.404-3.643-9.359-6.642-4.812-4.885-10.383-10.54-22.55-10.54Z" fill="#38BDF8"/><path fill-rule="evenodd" clip-rule="evenodd" d="M147.265 24.822h-8.567v16.582c0 4.421 2.902 4.352 8.567 4.076v6.702c-11.469 1.382-16.029-1.797-16.029-10.778V24.822h-6.356v-7.186h6.356v-9.28l7.462-2.21v11.49h8.567v7.186Zm32.659-7.186h7.461v34.546h-7.461v-4.975c-2.626 3.662-6.702 5.873-12.091 5.873-9.397 0-17.204-7.945-17.204-18.17 0-10.295 7.807-18.172 17.204-18.172 5.389 0 9.465 2.211 12.091 5.804v-4.906Zm-10.917 28.328c6.218 0 10.917-4.63 10.917-11.055s-4.699-11.054-10.917-11.054-10.916 4.629-10.916 11.054c0 6.426 4.698 11.055 10.916 11.055Zm30.815-33.51c-2.626 0-4.767-2.21-4.767-4.767a4.776 4.776 0 0 1 4.767-4.767 4.776 4.776 0 0 1 4.767 4.767c0 2.557-2.142 4.768-4.767 4.768Zm-3.731 39.728V17.636h7.462v34.546h-7.462Zm16.098 0V1.745h7.462v50.437h-7.462Zm55.895-34.546h7.876l-10.847 34.546h-7.324l-7.185-23.284-7.255 23.284h-7.324l-10.847-34.546h7.877l6.701 23.837 7.255-23.837h7.116l7.186 23.837 6.771-23.837Zm17.134-5.181c-2.625 0-4.767-2.211-4.767-4.768a4.773 4.773 0 0 1 4.767-4.767 4.778 4.778 0 0 1 4.767 4.767c0 2.557-2.141 4.768-4.767 4.768Zm-3.731 39.727V17.636h7.462v34.546h-7.462Zm34.269-35.444c7.739 0 13.266 5.251 13.266 14.233v21.21h-7.462v-20.45c0-5.251-3.04-8.015-7.738-8.015-4.906 0-8.775 2.902-8.775 9.95v18.516h-7.462V17.636h7.462v4.422c2.28-3.593 6.011-5.32 10.709-5.32Zm48.64-12.92h7.462v48.364h-7.462v-4.975c-2.625 3.662-6.701 5.873-12.091 5.873-9.396 0-17.203-7.945-17.203-18.17 0-10.295 7.807-18.172 17.203-18.172 5.39 0 9.466 2.211 12.091 5.804V3.818ZM353.48 45.964c6.218 0 10.916-4.63 10.916-11.055s-4.698-11.054-10.916-11.054-10.916 4.629-10.916 11.054c0 6.426 4.698 11.055 10.916 11.055Zm43.389 7.116c-10.433 0-18.24-7.945-18.24-18.17 0-10.295 7.807-18.172 18.24-18.172 6.771 0 12.644 3.524 15.407 8.913l-6.425 3.73c-1.52-3.246-4.906-5.32-9.051-5.32-6.08 0-10.709 4.63-10.709 10.848 0 6.218 4.629 10.847 10.709 10.847 4.145 0 7.531-2.141 9.189-5.32l6.426 3.662c-2.902 5.458-8.775 8.982-15.546 8.982Zm27.844-25.91c0 6.288 18.585 2.488 18.585 15.27 0 6.91-6.011 10.64-13.473 10.64-6.909 0-11.883-3.11-14.094-8.084l6.425-3.73c1.106 3.109 3.869 4.974 7.669 4.974 3.317 0 5.873-1.105 5.873-3.87 0-6.148-18.585-2.694-18.585-15.06 0-6.495 5.596-10.572 12.643-10.572 5.666 0 10.364 2.626 12.782 7.186l-6.287 3.523c-1.244-2.694-3.662-3.938-6.495-3.938-2.694 0-5.043 1.175-5.043 3.662Zm31.851 0c0 6.288 18.585 2.488 18.585 15.27 0 6.91-6.011 10.64-13.473 10.64-6.909 0-11.883-3.11-14.094-8.084l6.425-3.73c1.106 3.109 3.869 4.974 7.669 4.974 3.317 0 5.873-1.105 5.873-3.87 0-6.148-18.585-2.694-18.585-15.06 0-6.495 5.596-10.572 12.643-10.572 5.666 0 10.364 2.626 12.782 7.186l-6.287 3.523c-1.244-2.694-3.662-3.938-6.495-3.938-2.694 0-5.043 1.175-5.043 3.662Z" fill="#0F172A"/></svg>
