<svg width="33" height="32" viewBox="0 0 33 32" fill="none" xmlns="http://www.w3.org/2000/svg"><path d="M31.848 3.455 25.253.28a1.994 1.994 0 0 0-2.274.387L1.396 20.347a1.333 1.333 0 0 0 .001 1.971l1.763 1.603a1.334 1.334 0 0 0 1.703.076L30.855 4.278c.872-.661 2.125-.04 2.125 1.055v-.076a2 2 0 0 0-1.132-1.802Z" fill="#0065A9"/><path d="m31.848 28.545-6.594 3.175a1.994 1.994 0 0 1-2.274-.387L1.396 11.653a1.332 1.332 0 0 1 .001-1.971L3.16 8.079a1.333 1.333 0 0 1 1.703-.076l25.992 19.719c.872.661 2.125.04 2.125-1.055v.076a2 2 0 0 1-1.132 1.802Z" fill="#007ACC"/><path d="M25.255 31.72a1.994 1.994 0 0 1-2.275-.387c.738.738 2 .216 2-.828V1.495c0-1.044-1.262-1.566-2-.828a1.994 1.994 0 0 1 2.274-.388l6.592 3.17a2 2 0 0 1 1.134 1.803v21.496a2 2 0 0 1-1.133 1.802l-6.593 3.17Z" fill="#1F9CF0"/><path opacity=".25" fill-rule="evenodd" clip-rule="evenodd" d="M23.651 31.781a1.991 1.991 0 0 0 1.588-.06l6.588-3.17a2 2 0 0 0 1.133-1.803V5.252a2 2 0 0 0-1.133-1.802L25.24.28a1.992 1.992 0 0 0-2.273.387L10.353 12.173 4.86 8.003a1.332 1.332 0 0 0-1.702.076L1.396 9.682a1.334 1.334 0 0 0-.001 1.971L6.159 16l-4.764 4.347a1.333 1.333 0 0 0 0 1.971l1.763 1.603a1.332 1.332 0 0 0 1.702.076l5.493-4.17 12.613 11.507c.195.195.428.348.685.448Zm1.314-23.045L15.395 16l9.57 7.264V8.736Z" fill="url(#a)"/><defs><linearGradient id="a" x1="16.96" y1=".083" x2="16.96" y2="31.917" gradientUnits="userSpaceOnUse"><stop stop-color="#fff"/><stop offset="1" stop-color="#fff" stop-opacity="0"/></linearGradient></defs></svg>
