<svg width="265" height="60" viewBox="0 0 265 60" fill="none" xmlns="http://www.w3.org/2000/svg"><path d="M153.37 23.617h-10.409v1.104c3.256 0 3.779.698 3.779 4.827v7.444c0 4.129-.523 4.885-3.779 4.885-2.5-.349-4.187-1.687-6.513-4.245l-2.675-2.908c3.605-.64 5.524-2.907 5.524-5.467 0-3.197-2.733-5.64-7.851-5.64h-10.234v1.104c3.256 0 3.779.698 3.779 4.827v7.444c0 4.129-.523 4.885-3.779 4.885v1.105h11.572v-1.105c-3.256 0-3.78-.756-3.78-4.885V34.9h.988l6.456 8.083h16.922c8.316 0 11.922-4.42 11.922-9.712s-3.605-9.653-11.922-9.653Zm-24.365 9.478v-7.733h2.384c2.616 0 3.78 1.802 3.78 3.896 0 2.036-1.164 3.838-3.78 3.838h-2.384Zm24.54 8.084h-.407c-2.093 0-2.384-.523-2.384-3.198V25.36h2.791c6.048 0 7.152 4.42 7.152 7.851 0 3.547-1.104 7.967-7.152 7.967ZM88.822 35.248l4.012-11.864c1.164-3.431.64-4.42-3.082-4.42v-1.163h10.933v1.164c-3.663 0-4.535.872-5.99 5.117l-6.63 19.889h-.755l-5.933-18.203-6.047 18.203h-.756L68.12 24.082c-1.395-4.245-2.326-5.117-5.699-5.117V17.8h12.91v1.164c-3.431 0-4.362.814-3.14 4.419l3.896 11.864L81.959 17.8h1.106l5.757 17.447ZM108.593 43.737c-6.397 0-11.63-4.71-11.63-10.468 0-5.698 5.234-10.41 11.63-10.41 6.397 0 11.63 4.712 11.63 10.41 0 5.758-5.233 10.468-11.63 10.468Zm0-19.073c-5.35 0-7.211 4.826-7.211 8.606 0 3.839 1.861 8.607 7.211 8.607 5.409 0 7.269-4.768 7.269-8.607 0-3.78-1.86-8.606-7.269-8.606Z" /><path d="M179.655 41.819v1.163h-13.317v-1.163c3.896 0 4.594-.989 4.594-6.805V25.71c0-5.816-.698-6.746-4.594-6.746v-1.163h12.037c5.99 0 9.306 3.082 9.306 7.212 0 4.012-3.316 7.152-9.306 7.152h-3.315v2.849c0 5.816.698 6.805 4.595 6.805Zm-1.28-21.925h-3.315v10.12h3.315c3.257 0 4.769-2.268 4.769-5.001 0-2.792-1.512-5.119-4.769-5.119ZM227.631 37.516l-.291 1.046c-.523 1.92-1.164 2.617-5.293 2.617h-.814c-3.023 0-3.547-.698-3.547-4.826v-2.675c4.536 0 4.885.406 4.885 3.43h1.105v-8.664h-1.105c0 3.023-.349 3.43-4.885 3.43v-6.512h3.198c4.13 0 4.769.698 5.292 2.617l.292 1.104h.929l-.406-5.466h-17.098v1.104c3.257 0 3.781.698 3.781 4.827v7.444c0 3.777-.445 4.729-3.013 4.864-2.44-.372-4.115-1.703-6.407-4.224l-2.676-2.908c3.606-.64 5.525-2.907 5.525-5.467 0-3.197-2.733-5.64-7.85-5.64h-10.235v1.104c3.256 0 3.779.698 3.779 4.827v7.444c0 4.129-.523 4.885-3.779 4.885v1.105h11.573v-1.105c-3.256 0-3.78-.756-3.78-4.885V34.9h.988l6.455 8.083h23.901l.349-5.466h-.873Zm-30.821-4.42v-7.734h2.384c2.617 0 3.78 1.802 3.78 3.896 0 2.036-1.163 3.838-3.78 3.838h-2.384ZM239.435 43.737c-2.326 0-4.361-1.22-5.234-1.977-.29.291-.813 1.163-.93 1.977h-1.105v-8.024h1.163c.466 3.838 3.14 6.106 6.572 6.106 1.86 0 3.373-1.047 3.373-2.791 0-1.512-1.338-2.675-3.722-3.78l-3.315-1.57c-2.326-1.106-4.071-3.025-4.071-5.583 0-2.791 2.617-5.175 6.223-5.175 1.919 0 3.547.697 4.536 1.511.29-.232.581-.872.756-1.57h1.105v6.862h-1.221c-.408-2.733-1.92-5.001-5.001-5.001-1.629 0-3.141.93-3.141 2.385 0 1.511 1.221 2.325 4.013 3.605l3.198 1.57c2.791 1.337 3.896 3.49 3.896 5.234 0 3.663-3.199 6.221-7.095 6.221ZM257.346 43.737c-2.326 0-4.362-1.22-5.234-1.977-.291.291-.814 1.163-.93 1.977h-1.105v-8.024h1.163c.465 3.838 3.14 6.106 6.572 6.106 1.86 0 3.373-1.047 3.373-2.791 0-1.512-1.338-2.675-3.723-3.78l-3.314-1.57c-2.327-1.106-4.071-3.025-4.071-5.583 0-2.791 2.617-5.175 6.222-5.175 1.919 0 3.547.697 4.536 1.511.291-.232.582-.872.756-1.57h1.105v6.862h-1.221c-.407-2.733-1.919-5.001-5.001-5.001-1.628 0-3.141.93-3.141 2.385 0 1.511 1.221 2.325 4.013 3.605l3.198 1.57c2.792 1.337 3.896 3.49 3.896 5.234 0 3.663-3.198 6.221-7.094 6.221ZM4.264 30c0 10.186 5.92 18.99 14.505 23.161L6.493 19.525A25.638 25.638 0 0 0 4.263 30ZM47.374 28.7c0-3.18-1.143-5.383-2.122-7.097-1.305-2.12-2.528-3.915-2.528-6.035 0-2.366 1.795-4.568 4.322-4.568.114 0 .222.014.333.02A25.64 25.64 0 0 0 30 4.264c-8.99 0-16.9 4.613-21.503 11.6.604.019 1.173.031 1.656.031 2.692 0 6.86-.326 6.86-.326 1.387-.082 1.55 1.955.164 2.12 0 0-1.394.164-2.945.245l9.372 27.876 5.632-16.891-4.01-10.986c-1.386-.081-2.699-.245-2.699-.245-1.387-.082-1.224-2.202.163-2.12 0 0 4.25.326 6.779.326 2.691 0 6.859-.326 6.859-.326 1.388-.082 1.551 1.956.165 2.12 0 0-1.397.164-2.946.245l9.3 27.665 2.568-8.578c1.112-3.56 1.959-6.116 1.959-8.32Z" /><path d="M30.452 32.25 22.73 54.688a25.737 25.737 0 0 0 15.817-.41 2.255 2.255 0 0 1-.184-.355L30.452 32.25ZM52.583 17.652c.11.82.173 1.7.173 2.646 0 2.612-.488 5.548-1.957 9.218l-7.861 22.729c7.65-4.462 12.797-12.75 12.797-22.245 0-4.475-1.142-8.682-3.152-12.348Z" /><path d="M30 0C13.46 0 0 13.458 0 30c0 16.543 13.459 30 30 30s30.002-13.457 30.002-30c0-16.542-13.46-30-30.002-30Zm0 58.625c-15.783 0-28.624-12.842-28.624-28.626C1.376 14.216 14.216 1.376 30 1.376c15.783 0 28.623 12.84 28.623 28.623 0 15.784-12.84 28.626-28.623 28.626Z" /></svg>
