<svg width="144" height="60" viewBox="0 0 144 60" fill="none" xmlns="http://www.w3.org/2000/svg"><path d="M86.092 20.422c-3.15 0-5.495 1.547-5.495 5.27 0 2.804 1.546 4.75 5.326 4.75 3.204 0 5.38-1.887 5.38-4.866 0-3.377-1.948-5.153-5.21-5.153Zm-6.299 26.282c-.745.915-1.488 1.887-1.488 3.034 0 2.288 2.918 2.977 6.927 2.977 3.32 0 7.844-.233 7.844-3.32 0-1.835-2.176-1.949-4.926-2.121l-8.357-.57Zm16.946-26.108c1.03 1.317 2.119 3.15 2.119 5.783 0 6.354-4.982 10.076-12.194 10.076-1.834 0-3.494-.229-4.523-.515l-1.89 3.034 5.61.343c9.905.631 15.743.918 15.743 8.53 0 6.585-5.781 10.305-15.743 10.305-10.363 0-14.313-2.634-14.313-7.157 0-2.577 1.145-3.948 3.15-5.84-1.89-.799-2.52-2.23-2.52-3.776 0-1.26.63-2.405 1.662-3.494 1.03-1.086 2.174-2.176 3.549-3.435-2.805-1.374-4.924-4.35-4.924-8.588 0-6.583 4.351-11.104 13.11-11.104 2.461 0 3.95.226 5.268.572h11.164v4.865l-5.268.401M112.085 10.192c-3.264 0-5.153-1.891-5.153-5.156 0-3.26 1.889-5.036 5.153-5.036 3.321 0 5.21 1.776 5.21 5.036 0 3.265-1.889 5.156-5.21 5.156Zm-7.387 34.405v-4.52l2.921-.4c.802-.116.916-.287.916-1.147V21.698c0-.629-.171-1.031-.746-1.201l-3.091-1.09.63-4.635h11.852V38.53c0 .918.055 1.031.916 1.147l2.92.4v4.52h-16.318M143.656 42.378c-2.463 1.201-6.069 2.29-9.334 2.29-6.813 0-9.388-2.746-9.388-9.218v-15c0-.342 0-.572-.46-.572h-4.007v-5.095c5.04-.574 7.042-3.094 7.672-9.334h5.44v8.133c0 .399 0 .572.458.572h8.072v5.724h-8.53V33.56c0 3.379.802 4.694 3.892 4.694 1.605 0 3.264-.4 4.638-.915l1.547 5.04" fill="#413000"/><path d="M58.826 27.354 32.647 1.178a3.86 3.86 0 0 0-5.46 0l-5.435 5.436 6.895 6.895a4.584 4.584 0 0 1 5.807 5.846l6.645 6.646a4.592 4.592 0 0 1 4.747 7.587 4.594 4.594 0 0 1-7.499-4.997l-6.198-6.198v16.31a4.595 4.595 0 1 1-3.777-.134V22.11a4.593 4.593 0 0 1-2.494-6.025l-6.798-6.8L1.131 27.234a3.862 3.862 0 0 0 0 5.462L27.31 58.87a3.862 3.862 0 0 0 5.46 0l26.057-26.053a3.864 3.864 0 0 0 0-5.462" fill="#F05133"/></svg>
