<svg width="189" height="60" viewBox="0 0 189 60" fill="none" xmlns="http://www.w3.org/2000/svg"><path fill-rule="evenodd" clip-rule="evenodd" d="m174.022 41.105.247-5.98h2.477l.637 3.786a8.694 8.694 0 0 0 3.043.566c2.029 0 3.421-.662 4.176-1.982.259-.448.389-1.032.389-1.751 0-.72-.219-1.37-.654-1.946-.437-.577-1.157-1.116-2.159-1.61a46.03 46.03 0 0 0-2.971-1.345c-.979-.4-1.864-.878-2.654-1.433a7.024 7.024 0 0 1-1.946-2.052c-.508-.814-.762-1.793-.762-2.937s.208-2.106.62-2.885a6.067 6.067 0 0 1 1.681-1.98c1.485-1.133 3.302-1.7 5.449-1.7 2.077 0 4.069.355 5.98 1.062l.495 6.087h-2.441l-1.557-3.822c-.707-.236-1.598-.354-2.671-.354-1.074 0-1.982.248-2.726.743-.743.496-1.115 1.25-1.115 2.265 0 1.18.591 2.146 1.769 2.901.52.354 1.098.667 1.735.939.637.27 1.374.595 2.211.972.839.377 1.622.826 2.354 1.345.731.519 1.32 1.061 1.77 1.628a5.68 5.68 0 0 1 1.273 3.644c0 1.37-.231 2.495-.69 3.38a6.17 6.17 0 0 1-1.858 2.174c-1.462 1.085-3.397 1.628-5.803 1.628s-4.506-.449-6.299-1.345v.002Zm-17.94 0 .247-5.98h2.477l.637 3.786a8.694 8.694 0 0 0 3.043.566c2.029 0 3.421-.662 4.176-1.982.259-.448.389-1.032.389-1.751 0-.72-.219-1.37-.654-1.946-.437-.577-1.157-1.116-2.159-1.61a46.845 46.845 0 0 0-2.974-1.345c-.979-.4-1.864-.878-2.654-1.433a7.024 7.024 0 0 1-1.946-2.052c-.508-.814-.762-1.793-.762-2.937s.208-2.106.62-2.885a6.058 6.058 0 0 1 1.682-1.98c1.486-1.133 3.302-1.7 5.449-1.7 2.077 0 4.069.355 5.98 1.062l.496 6.087h-2.442l-1.557-3.822c-.708-.236-1.598-.354-2.671-.354-1.074 0-1.982.248-2.725.743-.743.496-1.115 1.25-1.115 2.265 0 1.18.59 2.146 1.769 2.901.52.354 1.097.667 1.734.939.637.27 1.374.595 2.212.972a13.98 13.98 0 0 1 2.354 1.345c.731.519 1.32 1.061 1.769 1.628a5.68 5.68 0 0 1 1.273 3.644c0 1.37-.231 2.495-.69 3.38a6.16 6.16 0 0 1-1.858 2.174c-1.461 1.085-3.397 1.628-5.803 1.628s-4.505-.449-6.298-1.345l.001.002Zm-2.831-.248c-1.486 1.061-3.574 1.592-6.263 1.592-3.256 0-6.039-1.038-8.351-3.114-2.523-2.288-3.786-5.284-3.786-8.987 0-3.916 1.203-7.031 3.609-9.342 2.194-2.1 4.977-3.15 8.351-3.15 1.51 0 3.255.224 5.237.673l.672 6.44h-2.406l-1.38-3.821c-.449-.166-1.227-.248-2.335-.248a7.285 7.285 0 0 0-3.203.743 7.91 7.91 0 0 0-2.6 1.982c-1.487 1.746-2.231 3.869-2.231 6.369 0 2.713.816 4.954 2.443 6.723 1.651 1.792 3.846 2.69 6.581 2.69 1.016 0 1.946-.155 2.796-.46.849-.309 1.461-.602 1.84-.886l1.026 2.796Z" /><path fill-rule="evenodd" clip-rule="evenodd" d="M78.2 39.23c.59.117 2.3.353 5.13.707l-.105 2.37H72.75l-.354-2.476 2.264-.496V20.723l-2.229-.177v-2.69h7.466c3.28 0 5.757.744 7.431 2.23 1.51 1.37 2.265 3.23 2.265 5.59 0 2.76-.931 4.824-2.796 6.193-1.651 1.203-3.974 1.805-6.97 1.805H78.2v5.555Zm7.678-13.588c0-3.162-2.146-4.742-6.44-4.742H78.2v9.73h1.486c2.17 0 3.775-.495 4.812-1.485.92-.873 1.38-2.041 1.38-3.503Zm10.227 12.684c.753.98 1.746 1.47 2.972 1.47 1.227 0 2.229-.478 3.008-1.434.778-.954 1.167-2.41 1.167-4.369 0-1.958-.371-3.485-1.115-4.582-.742-1.096-1.751-1.646-3.025-1.646-1.344 0-2.382.579-3.114 1.735-.684 1.108-1.026 2.611-1.026 4.51 0 1.9.377 3.34 1.133 4.318v-.002Zm-4.494-4.688c0-1.369.2-2.583.601-3.644.4-1.062.956-1.958 1.663-2.69 1.37-1.461 3.114-2.193 5.237-2.193 2.169 0 3.963.778 5.379 2.335 1.415 1.557 2.123 3.645 2.123 6.263 0 2.736-.754 4.895-2.265 6.476-1.392 1.51-3.138 2.264-5.237 2.264-2.194 0-3.987-.802-5.378-2.406-1.416-1.58-2.123-3.715-2.123-6.405Zm23.53-8.527a6.573 6.573 0 0 1 3.751 1.132 6.321 6.321 0 0 1 2.088 2.37l-3.609 1.38-.814-1.804a3.353 3.353 0 0 0-1.522-.354c-.542 0-1.038.16-1.486.477-.448.32-.672.785-.672 1.399 0 .613.294 1.115.884 1.504.59.387 1.404.794 2.442 1.219 1.038.424 1.834.825 2.388 1.203.554.377.985.777 1.29 1.202.59.779.885 1.646.885 2.6 0 .956-.177 1.74-.531 2.354a4.75 4.75 0 0 1-1.38 1.522c-1.107.753-2.454 1.133-4.034 1.133-1.321 0-2.607-.366-3.857-1.097-1.156-.708-1.911-1.581-2.265-2.619l3.646-1.38.849 2.052c.542.236 1.044.354 1.504.354.459 0 .83-.036 1.113-.107.284-.071.543-.176.779-.319.542-.354.814-.873.814-1.557 0-.872-.537-1.538-1.61-2a58.165 58.165 0 0 1-2.76-1.253c-.767-.377-1.409-.78-1.929-1.204-1.061-.896-1.592-2.077-1.592-3.539 0-1.438.577-2.594 1.734-3.468 1.084-.802 2.382-1.203 3.892-1.203l.002.003Zm17.339 13.623c.046.165.295.944.743 2.335-.331.308-.814.613-1.451.92-.637.308-1.461.46-2.477.46-1.015 0-1.869-.307-2.565-.92-.698-.613-1.046-1.615-1.046-3.008V27.766h-2.9l-.496-2.3.247-.354h3.15V19.2l2.83-.672.177.53v6.052h3.681c.118 0 .177.07.177.212v2.442h-3.858V37.92c0 .754.113 1.245.337 1.47.223.222.506.335.849.335.343 0 .63-.036.867-.107.236-.07.46-.165.673-.283.448-.188.802-.389 1.061-.601h.001Z" /><path fill-rule="evenodd" clip-rule="evenodd" d="M11.882 25.095c.082.061.223.101.082.223-.102.141-.223.263-.304.425-.08.142-.142.182-.263.082.161-.264.323-.508.485-.731Zm40.689 21.243c0 .06.02.1.02.162.04-.08.04-.122.061-.162h-.081Zm0 .182v-.02.02Zm-4.13 7.905-3.523-19.54c-.06-.019-.14-.059-.283-.1.041.081.062.142.082.203.1-.02.141-.02.181-.04 0-.02 0-.04.021-.062l3.523 19.542v-.003Zm-3.643-23.938c-.02.06-.02.121-.02.182 0-.061 0-.123.021-.183h-.001Zm.02.405c-.02 0-.02 0-.04-.022v.02c.021.02.021.02.041 0l-.001.002Zm-.04.161v-.142c-.06.02-.12.02-.202.04.102.039.203.06.203.1l-.001.002Z" /><path fill-rule="evenodd" clip-rule="evenodd" d="M60.546 26.128c-.04-.79-.06-1.581-.141-2.371-.142-1.075-.284-2.17-.527-3.223-.182-.872-.484-1.703-.789-2.534-.384-.973-.769-1.966-1.255-2.899-.79-1.5-1.822-2.838-2.773-4.236-.63-.893-1.439-1.622-2.046-2.534-.344-.527-.85-.973-1.357-1.377-.81-.65-1.66-1.239-2.51-1.806a24.99 24.99 0 0 0-1.984-1.256c-.546-.306-1.133-.549-1.7-.813-.648-.304-1.276-.669-2.004-.81-.183-.039-.345-.1-.527-.162-.465-.162-.91-.344-1.377-.486-.708-.223-1.396-.486-2.125-.67a19.521 19.521 0 0 0-2.165-.405c-.81-.12-1.638-.161-2.45-.24a20.635 20.635 0 0 0-1.558-.142c-.769-.04-1.558-.04-2.327-.06-.385-.021-.79-.062-1.174-.041-.587.02-1.174.08-1.762.162-.566.061-1.133.161-1.679.243-.667.081-1.334.122-2.003.204-.628.081-1.275.203-1.902.304-.223.04-.446.122-.67.162-.484.101-.99.142-1.476.304-.87.265-1.741.57-2.591.893-.79.324-1.56.669-2.308 1.074-.77.425-1.498.931-2.227 1.419-.689.466-1.377.952-2.046 1.479-.646.508-1.254 1.075-1.841 1.642-.324.323-.587.71-.891 1.074-.506.589-1.012 1.155-1.498 1.764-.403.508-.77 1.034-1.154 1.561-.687.931-1.274 1.925-1.82 2.919-.223.405-.425.81-.627 1.215-.304.608-.628 1.196-.911 1.825a7.702 7.702 0 0 0-.486 1.358c-.283.994-.567 2.008-.83 3-.243.893-.303 1.825-.323 2.737-.02.811.06 1.602.141 2.413.02.203-.1.446.142.607-.081.223-.02.346.1.385-.14.223.061.366-.019.57-.02.04.062.12.1.18 0 .062-.02.143 0 .204.022.182.102.364.102.567 0 .142.121.304.162.447.02.06 0 .161-.04.202-.122.141-.102.263.08.345.102.263.062.384.042.507.04.182-.021.242 0 .283.161.325.223.69.242 1.054 0 .082.04.163.081.264.02 0 0 .385 0 .385.1-.06.183-.08.283-.121.062.263.122.508.203.73.101.162.101.242.061.262.081.365.121.71.262 1.054 0-.385-.039-.77-.1-1.135.283.102.526.203.688.203.021-.062.041-.142.062-.183-.122-.12-.223-.303-.345-.424.041.161 0 .223 0 .284-.08-.041-.182-.082-.283-.123.08-.1.162-.202.283-.323 0-.183-.1-.346-.384-.325.121-.04.243-.1.384-.142.223-.12-.02-.344-.02-.627.02-.344-.182-.689-.243-1.054-.101-.567-.08-1.419-.141-1.986-.122-.102-.223.161-.243.182.061.486.121.972.161 1.46-.12-.406-.202-.852-.303-1.34-.02.143-.04.204-.04.285-.1.1-.02.223.04.365-.142-.062-.304-.04-.304-.04v.568c-.201-.204-.261-.365-.364-.508-.04-.162-.061-.323-.1-.485.039-.102 0-.163 0-.223a12.28 12.28 0 0 1-.061-.488c.02-.02-.02-.323-.02-.323.161.02.264.039.364.039-.202-.262-.061-.425.021-.587.04-.082.182-.1.223-.183.162-.304.426-.546.426-.932 0-.183.061-.385.08-.568.041-.345.081-.69.1-1.034.042-.446 0-.892.103-1.318.163-.707.365-1.417.587-2.127a22.6 22.6 0 0 1 .547-1.5c.303-.791.587-1.582.972-2.331.546-1.096 1.174-2.15 1.781-3.223.385-.67.79-1.298 1.216-1.946.404-.629.807-1.277 1.274-1.866a16.5 16.5 0 0 1 2.146-2.29c.81-.73 1.58-1.48 2.45-2.149a24.599 24.599 0 0 1 3.601-2.312c1.033-.546 2.106-.974 3.179-1.38.688-.263 1.437-.384 2.146-.607a8.514 8.514 0 0 1 2.47-.406c.545-.02 1.072-.081 1.618-.142.486-.038.972-.08 1.499-.14-.062.08-.082.12-.102.16-.221.326-.464.65-.687.974-.183.264-.385.548-.567.81-.325.428-.67.853-.973 1.3-.465.668-.89 1.358-1.377 2.026-.484.649-1.011 1.257-1.517 1.885-.668.872-1.296 1.764-1.963 2.635-.608.83-1.254 1.623-1.842 2.454-.526.728-.992 1.5-1.498 2.248-.749 1.116-1.498 2.21-2.246 3.325-.588.85-1.175 1.682-1.782 2.534-.04.061-.102.08-.162.12-.161.264-.161.406-.223.528-.161.303-.323.607-.506.892-.101.161-.243.303-.364.465-.02-.243.323-.364.161-.669-.1.163-.202.305-.303.467l-.243.485c.08.061.223.102.08.223-.06.102-.12.223-.182.325a.733.733 0 0 0 .224-.203c0 .223-.122.405-.224.587-.08.161-.283.285-.424.405.02.021.161.082.182.102.182-.062.243-.162.264-.102.062-.08.122-.141.142-.202.08-.203.201-.365.403-.446.082-.041.142-.102.203-.162.607-.629 1.235-1.237 1.781-1.906.851-1.035 1.62-2.108 2.431-3.161.343-.447.748-.893 1.112-1.319.06.466.02.912 0 1.339-.061.749-.101 1.5-.161 2.269-.021.304 0 .608-.021.912 0 .08-.062.142-.062.223 0 .202.062.426.062.629-.062.75-.143 1.479-.204 2.229-.02.161.06.325.1.467-.1 1.094.123 2.25-.06 3.405.142-.223.182-.364.182-.506.02-.122 0-.243 0-.385v-.203c.02-.365.1-.75.06-1.115-.04-.405-.04-.79.041-1.175.041-.162-.02-.365.082-.568v.304c-.02 1.154.02 2.31-.141 3.465-.02.102.061.285-.162.264-.183.365.04.628-.161.83-.042.041.038.224.06.345-.082.244-.082.244.04.264.02.446.06.851.08 1.277.323-.77.161-1.561.305-2.352.02.324.04.649.02.992 0 .529-.02 1.035-.04 1.562 0 .101-.021.203-.041.304-.062.285-.081.568-.183.831-.08.203-.04.508-.04.75v.772c.081.344-.02.526.04.729-.061.204-.08.264-.061.325l.061.304c.406-.04.224.264.385.425-.122.163-.08.224-.08.306 0 .182-.02.344-.04.527 0 .466-.02.932-.02 1.378 0 .062.02.121.02.182 0 .041-.02.569-.02.569.04.06 0 .12-.062.181-.02 0-.08-2.574-.08-2.574h-.304c-.04 1.215.061 2.31-.162 3.446-.243.02-.323.06-.587.06-.628 0-1.256 0-1.883.02-.75 0-1.477.02-2.227.02-.363 0-.748.042-1.113.042-.486 0-.992-.062-1.477-.062-.75 0-1.478.062-2.227.082-.546.02-1.093.02-1.639.04-.365.02-.73.039-1.094.08-.161.02-.303.081-.506.142-.061 0-.202-.02-.323 0-.204.04-.384.161-.588.203-.304.062-.385.142-.345.446v.202c-.02.04.446-.061.446-.061-.041 0-.061.121-.123.223.163-.062.264-.102.366-.142.303.143.567.062.809.123.79.202 1.598.285 2.408.364.526.041 1.033.062 1.559.081.748.04 1.497.082 2.246.082.628 0 1.235-.062 1.861-.062.87 0 1.742.04 2.612.062.182 0 .385-.022.587-.022h1.477c1.317-.04 2.632-.061 3.948-.1.75-.021 1.52-.061 2.268-.082l2.308-.062c.89-.02 1.781-.02 2.652-.038.668 0 1.315-.023 1.985-.043.747-.02 1.517-.08 2.266-.12.405-.021.81-.062 1.215-.102.486-.04.992-.1 1.477-.12.73-.042 1.478-.062 2.208-.103.91-.06 1.821-.14 2.752-.161.85-.04 1.72-.02 2.572-.04.749-.021 1.498-.062 2.267-.082l1.277-.062s.85-.02 1.275-.061c.728-.04 1.457-.12 2.186-.14.465-.022.93 0 1.396-.022.749-.02 1.518-.061 2.267-.061.282 0 .586.041.95.061-.16.143-.262.223-.384.325.081.02.162.062.243.102a.547.547 0 0 1-.323.1c-.041.102-.082.143-.123.346h.365c-.142 0-.263.182-.405.304-.161-.042-.304 0-.384.223.141.08.121.14.101.223-.243.08-.425.161-.323.424-.082.04-.183.081-.285.142-.1.161-.283.202-.243.425.082.02.162.062.223.08-.101.041-.202.102-.303.142-.364.223-.202.324-.121.426-.062.04-.122.08-.183.102.04.182.1.223.121.223-.08.06-.182.141-.304.243-.061.182-.142.263-.223.384-.08.122-.121.285-.223.406-.424.467-.728 1.015-1.274 1.379-.203.142-.385.325-.567.508-.365.343-.689.729-1.073 1.053-.506.426-1.031.81-1.579 1.196-.667.466-1.334.932-2.003 1.378-.365.243-.77.425-1.154.648-.384.223-.749.426-1.134.648-.243.162-.466.385-.729.508-.668.285-1.377.527-2.065.79-.669.285-1.153.528-1.66.71-.465.162-.951.285-1.436.385-.162.041-.345 0-.527.02-.345.062-.689.144-1.033.184-.891.121-1.782.203-2.672.324-.527.062-1.033.162-1.56.223-.363.02-.748-.02-1.112-.02-.263 0-.546.062-.81.021-.425-.062-.85-.161-1.276-.243-.1-.02-.243-.062-.323-.02-.161.081-.304-.04-.467 0-.1.02-.201-.062-.303-.062-.081-.019-.183.022-.284 0-.223-.06-.425-.14-.67-.12-.24.02-.484-.102-.746-.162-.365-.081-.707-.161-1.074-.244a1.837 1.837 0 0 1-.403-.182c-.527 0-.872-.02-1.196-.142-.283-.1-.546-.243-.85-.202-.08.02-.14-.02-.223-.02-.061-.081-.12-.244-.18-.244-.405.021-.648-.323-.993-.425-.181-.062-.323-.264-.505-.325-.446-.182-.81-.567-1.316-.627-.161-.021-.323-.102-.506-.162.062.08.1.14.162.202-.587-.285-1.133-.608-1.68-.913-.08-.02-.141-.1-.202-.141l-.546-.365c-.304.062-.425-.061-.508-.101-.546-.385-1.173-.629-1.7-1.054-.223-.183-.484-.305-.646-.528-.284-.345-.628-.588-1.013-.79-.303-.162-.586-.345-.87-.527-.141-.101-.284-.223-.284-.446 0-.142-.06-.285-.242-.203-.08-.122-.162-.263-.263-.304-.243-.1-.405-.285-.587-.446-.182-.162-.323-.385-.546-.465-.406-.162-.649-.507-.891-.79-.568-.67-1.074-1.4-1.6-2.108-.04-.062-.122-.102-.182-.163.08.223.182.405.283.607-.202-.08-.343-.223-.465-.364-.02.02 1.396 2.351 1.396 2.351.123.183.223.366.345.548a.625.625 0 0 1-.608-.325c-.181-.323-.384-.526-.789-.484a3.532 3.532 0 0 1-.1-.446c-.082 0-.142 0-.285-.021.285.446.527.83.79 1.277-.102-.062-.161-.102-.203-.122.363.385.626.872 1.092 1.116.101.465.628.688.75 1.134-.1-.02-.184-.04-.286-.061-.161-.203-.343-.405-.525-.628.04.142.1.263.182.365.243.303.466.607.749.871.101.103.243.144.243.326.161.081.223.1.283.1.042.123-.02.306.223.265.162.304.323.304.546.203.264.264.406.285.588.123 0 .1.02.202.02.283.08-.04.061-.101.061-.203.1.08.162.122.202.162.202.284.385.547.668.77.384.325.729.67 1.092.974.71.588 1.5 1.075 2.288 1.52.973.548 1.904 1.136 2.896 1.662 1.194.629 2.47 1.055 3.784 1.359.487.102.952.202 1.439.323.423.123.85.306 1.274.406.648.143 1.316.264 1.964.385.14.02.284.041.446.061.18.041.403-.04.444.021.101.162.182.08.303.06.142-.04.304-.04.466-.04.567.02 1.113.141 1.68.101.123 0 .304-.102.406.1.181-.08.283-.08.364-.1.021.181 0 .181-.039.202-.041.02-.102.04-.183.101.729.142 1.417.162 2.023 0 1.054.08 1.965-.04 2.836-.345.08.102.141.244.263.041.04-.061.141-.082.223-.102.181-.04.404-.122.566-.062.183.062.244-.1.385-.1.243 0 .466-.02.689-.061.121-.02.243-.081.384-.122a.98.98 0 0 0-.446-.102c.244-.122.467-.223.69-.323-.041.06-.082.14-.162.14h.282c-.061 0-.142.183-.243.304.728-.182 1.396-.344 2.044-.507-.223-.425.242-.282.405-.526a6.3 6.3 0 0 1-.608.161c.689-.344 1.397-.648 2.085-.951-.1.121-.223.182-.404.284.121.02.202.02.263.039.323.102.243-.202.344-.385.384 0 .546-.06.728-.121.203-.062.405-.122.608-.203.323-.141.627-.323.95-.484.062-.022.162 0 .244 0 .223-.143.303-.265.364-.245.284.04.484-.062.566-.323.141-.102.243-.183.344-.245.444-.243.869-.486 1.315-.729.161 0 .243 0 .283-.02.265-.124.508-.264.75-.406-.062-.02-.202-.1-.202-.1.201-.042.261-.062.384-.102.485-.57 1.154-.954 1.66-1.4.223-.02.223-.081.223-.121.08-.102.161-.223.261-.305.446-.405.931-.75 1.336-1.175a28.808 28.808 0 0 0 1.68-1.826c.485-.568.973-1.135 1.377-1.763.567-.872 1.053-1.764 1.559-2.677.364-.648.688-1.296 1.054-1.945.038-.061.12-.142.181-.142.546-.062 1.094-.1 1.62-.162.122-.02.263-.1.385-.161-.062-.102-.102-.223-.162-.325-.081-.123-.203-.223-.284-.346-.08-.1-.141-.223-.202-.344-.062-.1-.121-.181-.182-.284a7.375 7.375 0 0 1-.346-.688c-.02-.062-.062-.162-.04-.223.364-.79.506-1.642.85-2.433.343-.81.446-1.723.607-2.594.142-.831.223-1.662.323-2.492.062-.588.143-1.156.162-1.744.123-.932.081-1.804.061-2.677-.02-.769-.061-1.56-.1-2.33l-.002-.003ZM9.758 51.081c-.142-.162-.263-.345-.405-.506l.062-.062c.22.244.443.487.666.75-.122-.06-.263-.1-.323-.182Zm.323.183c.061-.021.123-.021.183-.041.061.102.101.223.161.345-.283-.021-.424-.143-.344-.304Zm21.054 8.371v-.061c.384-.04.748-.081 1.133-.121v.06c-.385.06-.749.1-1.133.12v.002Zm5.1-.527c-.283.062-.587.103-.87.144-.101.02-.223.121-.263-.062-.04.02-.081.02-.121.041.1.304.344.06.546.182-.446.062-.87.102-1.296.162v-.04c.124-.02.264-.041.385-.062v-.06a5.945 5.945 0 0 0-.608-.04c-.059 0-.14.08-.201.1-.08.02-.162.042-.263.042-.344.02-.688.02-1.012.04-.021 0-.062-.02-.082-.02v-.062c1.356-.181 2.692-.364 4.048-.546.021.04.021.08.041.12-.121 0-.202.043-.304.062Zm.304-.201c.466-.062.892-.102 1.337-.162-.93.263-1.234.303-1.336.162ZM18.908 17.98c.646-.892 1.315-1.785 1.963-2.696.202-.266.364-.55.566-.813.061-.081.142-.121.243-.203l-.02-.038c.08-.102.162-.185.202-.265.103-.161.164-.344.245-.527.02-.038.08-.079.08-.079.285.142.285-.161.385-.264.183-.203.365-.425.526-.628.122-.162.244-.304.345-.486.02-.062-.04-.162-.062-.244h-.06c.062-.04.122-.1.183-.142.02 0 .02 0 .04-.02.121-.183.243-.365.364-.527.243-.323.506-.648.789-.931-.04.1-.08.202-.122.283.021 0 .021.02.041.02.243-.324.506-.628.75-.953-.021-.02-.041-.04-.062-.04-.1.101-.182.203-.283.305-.02-.021-.04-.041-.062-.041.204-.264.406-.527.608-.831.04.062.081.142.161.304.083-.202.163-.344.223-.486-.06.061-.14.121-.201.183l-.062-.062.365-.546c.385-.548.77-1.115 1.154-1.663.142-.202.323-.365.446-.568.385-.769.992-1.378 1.457-2.087.102-.142.243-.263.365-.385.1-.123.182-.082.263.02.546.69 1.092 1.398 1.638 2.088.406.507.81.992 1.195 1.52.466.649.911 1.297 1.377 1.946.527.75 1.053 1.5 1.559 2.269.77 1.136 1.498 2.272 2.267 3.406.567.831 1.134 1.643 1.68 2.473H38.42c-.95-.019-1.923-.1-2.874-.06-1.295.062-2.61.203-3.906.305-1.64.142-3.3.161-4.939.161-.588 0-1.175.083-1.761.123-.71.04-1.398.081-2.106.1-.83.042-1.639.062-2.47.083-.466.02-.95 0-1.457 0v-.004Zm23.217 9.323v.183c-.02 0-.04.02-.08.02-.081-.284-.162-.588-.264-.872-.202-.589-.425-1.177-.79-1.703-.406-.567-.769-1.154-1.175-1.743-.1-.142-.243-.263-.364-.384-.426-.467-.851-.954-1.397-1.298-.81-.508-1.64-.933-2.531-1.298a5.67 5.67 0 0 1-.708-.365h.485l3.461-.061c.75-.02 1.479-.02 2.227-.06.182 0 .283.061.385.223.181.303.364.607.566.912.02.04.062.1.062.161 0 .447 0 .913.02 1.359.019.466.061.912.08 1.378 0 .466-.041.953-.02 1.439.02.69.04 1.4.04 2.108l.003.001Zm-21.781-6.788c.951-.04 1.861-.101 2.794-.142.727-.04 1.477-.062 2.204-.102.304-.019.588-.038.891 0-.323.164-.648.326-.93.528-.365.243-.708.567-1.074.831a6.07 6.07 0 0 0-.992.932c-.385.466-.81.871-1.215 1.317-.285.325-.608.629-.85.973-.344.446-.648.931-.972 1.439.102-1.926.223-3.831.142-5.777l.002.001Zm13.22 19.5c-.65.162-1.316.345-1.986.426-.566.081-1.153.061-1.74.061-.528 0-1.034-.02-1.56-.061-.587-.06-1.174-.121-1.741-.385-.487-.223-.992-.425-1.477-.67-.488-.242-.973-.525-1.338-.971-.262-.326-.627-.589-.951-.873a.957.957 0 0 0 .425.588c-.101.121-.243.061-.446-.264-.06.04-.12.062-.162.082.062-.143.122-.285.183-.406-.081-.161-.183-.344-.263-.507a17.03 17.03 0 0 1-.466-.81c-.04-.062-.04-.122-.08-.183a4.55 4.55 0 0 1-.285-.365c-.162-.242-.303-.505-.505-.75 0 .062.02.122.02.204-.02 0-.04.02-.04.02l-.427-1.034c-.02 0-.02 0-.04.02l.364 1.338c-.02 0-.04.02-.061.02-.06-.08-.12-.162-.162-.262-.04-.163-.161-.163-.261-.102-.062.04-.103.182-.082.243.142.344.304.689.466 1.034.04.121.081.223.142.344.02.041.081.081.081.142.082.161.143.323.243.466.183.243.385.486.567.73.181.242.343.507.505.75.02.04.08.04.1.06.102.305.446.527.69.405.06.467.566.629.768 1.075a9.217 9.217 0 0 1-.587-.264c-.02.02-.02.04-.041.08.243.122.486.244.708.386.203.123.406.243.588.384.243.223.527.346.87.426-.02-.061-.04-.082-.04-.082.567.264 1.155.548 1.6.77-2.106.04-4.353.081-6.681.122 0-.384-.02-.75-.02-1.135 0-.162.04-.304.019-.466-.062-.931-.062-1.865-.183-2.777-.12-.972-.12-1.926-.1-2.9.02-.526-.02-1.072-.041-1.6 0-.71 0-1.4.021-2.108 0-.101.041-.182.082-.285h.062c.019.042 0 .103.038.124.061.061.163.161.204.141.12-.081.303-.161.344-.285.1-.242.141-.506.141-.749 0-.181.082-.303.162-.425.041-.062.061-.122.102-.202-.08-.062-.162-.102-.263-.183.081-.223.061-.487.365-.607.04-.021.04-.123.062-.184.02-.163.038-.346.06-.507.04.061.061.08.1.12.021-.04.041-.061.041-.061 0-.08-.02-.242 0-.242.243-.041.142-.304.264-.426.019-.021-.021-.082-.021-.123 0-.04 0-.1.02-.1.282-.061.242-.365.424-.507.062-.041.081-.1.162-.203.161.283-.122.426-.142.628.343-.202.445-.689.243-.83.08-.062.161-.142.223-.224.223-.243.464-.466.667-.71.143-.18.223-.404.365-.586.082-.102.243-.182.365-.244.364-.201.707-.424.93-.77.041-.04.102-.08.162-.12.061-.041.183-.041.203-.102.02-.04-.04-.142-.08-.202.08-.041.16-.122.322-.204-.061.122-.08.204-.121.285l.1.1c.183-.142.466-.303.648-.425 0-.019-.101-.1-.101-.1-.121.062-.303.162-.485.244.039-.062.039-.102.062-.122.282-.182.565-.365.869-.508.708-.323 1.417-.647 2.125-.951.122-.062.285-.02.426-.02.06 0 .1 0 .161-.02.323-.102.648-.203.972-.285.14-.04.302-.06.446-.06.605.02 1.213.02 1.82.06.263.02.506.08.75.162.302.102.626.244.91.384.344.185.668.386.992.61.587.384 1.133.81 1.72 1.155.567.345 1.013.81 1.377 1.338.446.628.952 1.196 1.154 1.966l.303 1.338c.062.243.203.486.142.77-.102.507-.183 1.034-.263 1.541-.04.204-.081.408-.06.608.038.63-.204 1.177-.447 1.744-.081.183-.203.366-.303.568.02.02.141.081.161.081l.182-.364c.021 0 .021 0 .041.02-.101.284-.182.588-.284.872-.242.629-.485 1.277-.789 1.885-.162.344-.446.628-.648.954-.201.283-.364.587-.566.85-.182.223-.364.447-.607.608-.547.406-1.114.81-1.7 1.136-.364.223-.79.344-1.194.446l.005-.003Zm-10.79-1.077-.02.021c-.043-.02-.104-.04-.144-.08l-.486-.731a.23.23 0 0 1-.04-.202c.223.345.446.67.688.992h.001Zm12.591 2.777c.91-.384 1.66-.93 2.346-1.56.103-.101.204-.202.325-.284.85-.526 1.477-1.256 2.045-2.067.647-.933 1.073-1.986 1.6-2.98.04-.081.08-.161.12-.222-.04 2.31.224 4.58.527 6.871l-6.963.243Zm20.526-.607c-.02.04-.062.081-.081.123-.02-.042-.02-.103-.04-.185-.122.325-.385.163-.568.163-1.092.021-2.206.021-3.3.021-1.052 0-2.124 0-3.177.018-.344 0-.709.081-1.053.102-.83.04-1.66.061-2.49.08-.061 0-.121-.1-.223-.18-.02.04-.061.1-.121.181-.022-.04-.062-.08-.103-.14-.02.061-.04.121-.061.161h-.059c-.04-.283-.121-.546-.121-.83 0-.608.061-1.216.08-1.825.021-.283 0-.546 0-.81.082.06.143.101.224.16.04-.079.08-.14.121-.2 0 0-.04-.02-.081-.06.038-.022.08-.062.08-.082.02-.062.061-.122.061-.162 0-.142-.041-.264-.061-.385.02 0 .04 0 .061-.021l.121.608h.061c-.081-.141.182-.264-.04-.425-.02-.02.02-.142.02-.203-.062-.12-.1-.242-.162-.405.02-.02.081-.04.142-.061-.081-.04-.142-.08-.203-.1.203-.183.203-.285.02-.487.042-.02.082-.02.082-.039 0-.183 0-.365-.04-.546-.04-.204.062-.446-.243-.569.02.062.04.102.08.162 0 0-.06.02-.12.061-.264-.244-.1-.57-.162-.933.141.04.243.082.343.123-.04-.143-.141-.305-.202-.488h-.082v-1.338c0 .02.141.02.223.041 0-.02.02-.04.02-.061-.062-.08-.143-.162-.224-.263l.04-.041c-.16-.202-.08-.485-.08-.546v-1.42c.203.204-.1.467.203.588v-.202h-.02c-.02-.304-.02-.608-.04-.912h-.04c-.021.041-.021.061-.042.102h-.04l.121-4.845c.203.264.425.508.566.77.467.852 1.074 1.582 1.64 2.352.487.67.931 1.398 1.377 2.088.547.83 1.073 1.661 1.62 2.492.404.63.83 1.258 1.254 1.866.384.546.79 1.074 1.195 1.602.343.466.708.932 1.051 1.398.406.568.81 1.135 1.216 1.682.201.284.424.567.646.851.123.162.305.285.426.385-.02 0-.04 0-.08-.02.062.08.1.141.142.182.223.122.243.243.121.426l.002-.004Zm1.032-5.066v-.143c0 .04.02.1 0 .142Zm.688-8.939c-.02 0-.141-.123-.161-.143-.02.061 0 .121-.04.203-.022-.06-.162-.04-.162-.1-.021.283.12.567.1.85.061-.04.303-.06.364-.12.021.02.062.04.082.04-.406.304-.304.607-.122.953.04.08.162.242.04.405-.04.04.021.161.041.264h.06v.038l-.183.062c-.04-.062-.282-.182-.282-.285v1.035c.202.062.202.345.283.487a.605.605 0 0 0 .082-.161l.02.018c-.02.122-.04.243-.08.366-.04.181-.081.343-.1.526 0 .02.038.061.038.08-.222.508-.1 1.074-.181 1.6-.062.385 0 .793-.04 1.197-.042.345-.124.71-.204 1.054-.02.062-.061.081-.161.122.04-.243.02-.406-.021-.629-.022 0-.285-.141-.306-.141 0 .284.162.669.224.992-.062-.02-.304-.161-.324-.161-.041.243-.041.567-.061.83-.02.203-.202.385-.223.608 0 .123.141.203.121.406h.162c0-.404.183-.769.183-1.195h.06c.02.04.081.081.062.101-.041.223-.124.466-.102.69 0 .121.1.243.062.384a1.978 1.978 0 0 0-.083.426c-.02-.101-.04-.141-.04-.202-.02 0-.203-.02-.224-.02-.02.12.143.242.122.344-.02.02-.04.02-.08.04l-.669-.973c-.527-.77-1.053-1.541-1.58-2.331a4.845 4.845 0 0 1-.365-.608 28.424 28.424 0 0 0-2.085-3.102c-.586-.75-1.053-1.562-1.6-2.35-.504-.75-1.01-1.48-1.517-2.23-.182-.243-.404-.466-.566-.73-.526-.83-.993-1.682-1.517-2.513-.447-.69-.931-1.36-1.397-2.028-.162-.223-.323-.467-.486-.71a.282.282 0 0 1-.04-.14c-.041-.446-.082-.892-.102-1.317 0-.406.04-.811.04-1.237v-.365c0-.102.02-.182.02-.285.02-.019.04-.06.06-.08-.587 0-1.195-.021-1.781 0-.385.02-.587-.143-.85-.427-.77-.871-1.337-1.864-2.004-2.796a125.17 125.17 0 0 0-1.923-2.637c-.527-.709-1.054-1.398-1.58-2.107-.587-.811-1.154-1.622-1.761-2.433-.73-.972-1.479-1.946-2.227-2.918-.346-.446-.73-.872-1.116-1.338.264.041.508.081.75.102l.973.061c.728.06 1.457.1 2.184.2.608.083 1.216.204 1.843.305 1.337.223 2.653.588 3.928 1.014.75.243 1.477.568 2.208.871 1.638.67 3.198 1.48 4.736 2.331.485.264.77.69 1.132 1.075.527.547 1.054 1.094 1.56 1.661.586.67 1.132 1.359 1.7 2.048.505.608 1.03 1.215 1.538 1.825.162.182.285.405.425.607.323.487.688.954.971 1.48.202.386.323.833.465 1.258.201.628.404 1.236.607 1.865.141.466.262.953.364 1.438.081.325.061.67.161.992.123.428 0 .893.123 1.32.02.04.039.101.06.142.081.08.142.161.02.283-.019.02-.019.1 0 .162.042-.04.062-.081.103-.142 0 .04.019.062.019.08 0 .08-.021.162 0 .243 0 .04.04.1.06.142.04-.042.08-.062.161-.123.183.69.203 1.379.203 2.088 0 .67.121 1.338-.161 1.987.06-.223-.082-.427-.02-.63l.008.006Z" /><path fill-rule="evenodd" clip-rule="evenodd" d="M44.677 34.986c.02 0 .04.02.04.02l-.02-.022c0-.02 0-.02-.02 0v.002Zm3.198 20.028c-.224.161-.447.304-.73.364-.021-.02-.021-.04-.041-.061.223-.142.465-.283.688-.425.021.038.062.08.082.12v.002ZM9.919 27.546c.223-.282.446-.566.688-.85.02.02.18.062.201.08-.223.285-.527.67-.749.974-.041-.04-.102-.182-.142-.203h.002Zm-5.75 9.935c-.161-.345-.323-.71-.484-1.054a.699.699 0 0 1 .181-.082c.223.323.323.708.486 1.054 0 0-.161.08-.182.08v.002Zm5.163-9.731c-.121.183-.243.386-.364.57-.02-.022-.243.08-.263.06.121-.183.424-.508.546-.69.02.02.04.04.081.061v-.001ZM45.71 55.846c.02 0 .02-.02.04-.02.142.02.303.04.466.04-.265.182-.427.162-.508-.02h.002ZM9.371 28.602a.854.854 0 0 1 .102-.183c.04 0 .1-.02.1-.02.082-.142.082-.244.163-.365-.02-.02-.04-.02-.061-.041-.121.083-.243.185-.364.265.04.04.04.062.04.102-.161-.02-.223.062-.303.283-.02.062-.122.082-.223.162-.02.041-.04.143-.081.243l.02.022c-.04.04-.101.061-.101.061-.122.121-.263.224-.385.344-.02.062-.04.122-.04.183.143-.142.385-.406.567-.568l.021.02c.08-.12.142-.242.223-.364.02.02.02.04.04.062-.061.161-.121.343-.182.505-.042.02-.103.062-.103.04-.081.062-.142.142-.223.203l-.364.243c-.202.183-.405.344-.628.527-.141.223-.283.425-.446.69.244-.062.305.04.285.243.283.04.303-.182.384-.344.02-.042.041-.123.081-.143.182-.162.385-.304.587-.466.04-.04.04-.123.04-.183 0-.02-.102-.02-.162-.04.182-.204.446-.547.627-.77.102-.061.203-.143.203-.204-.02-.223.121-.283.284-.364-.081-.062-.102-.121-.102-.141v-.002Z" /><path fill-rule="evenodd" clip-rule="evenodd" d="M9.777 28.378c-.08.142-.162.264-.242.406l-.122-.062c-.08.466-.365.871-.648.952.081.04.162.081.223.061.06-.02.1-.123.141-.183l.546-.79.183-.305-.08-.08-.001.001Zm-6.74 8.899c.101 0 .203.02.323.02 0-.08.102-.062.102-.142h.062c0 .102.02.183.02.285h-.425c-.02-.02-.101-.143-.081-.163h-.001Zm-.162-.932c-.061-.062-.161-.122-.161-.183-.02-.08.04-.18.1-.282.041.142.061.263.101.405-.02.02-.04.04-.04.06Zm.507-1.298c.08.205.161.428.243.63a.636.636 0 0 0-.162.081c-.08-.203-.182-.426-.263-.628a.501.501 0 0 1 .182-.082v-.001Zm45.061 19.38c.1-.04.222-.062.385-.1-.183.14-.325.242-.446.364-.021-.02-.041-.041-.062-.041.04-.08.082-.142.123-.223ZM23.562 11.595c.12-.081.223-.142.343-.223l.04.04c-.123.162-.223.323-.365.527-.02-.14-.02-.223-.04-.323-.02 0 0 0 .02-.02h.002Zm5.93 10.257c.183-.082.365-.162.587-.264-.02.121-.02.203-.02.284a.713.713 0 0 0-.203-.041c-.121.02-.344.183-.446.203-.02 0 .082-.162.082-.182ZM44.677 39.04c.04.202.425.304.04.506.062.042.12.061.181.103 0 .02-.02.062-.04.081-.04.02-.121.06-.161.039-.02 0-.062-.08-.062-.12 0-.183.021-.365.041-.608l.001-.001Z" /></svg>
