<svg width="123" height="36" viewBox="0 0 123 36" fill="none" xmlns="http://www.w3.org/2000/svg"><path d="m15.896.336 15.48 8.756v17.516l-15.48 8.756-15.48-8.756V9.092L15.896.336Z" fill="#fff"/><path d="m28.612 26.004-12.204 6.904v-5.376l7.604-4.184 4.6 2.656Zm.836-.756V10.812l-4.464 2.58v9.28l4.464 2.576Zm-26.316.756 12.204 6.904v-5.376l-7.608-4.184-4.596 2.656Zm-.836-.756V10.812l4.464 2.58v9.28l-4.464 2.576ZM2.82 9.876l12.516-7.08v5.196l-8.02 4.412-.064.036L2.82 9.876Zm26.104 0-12.516-7.08v5.196l8.02 4.408.064.036 4.432-2.56Z" fill="#8ED6FB"/><path d="M15.336 26.308 7.832 22.18v-8.172l7.504 4.332v7.968Zm1.072 0 7.504-4.124v-8.176l-7.504 4.332v7.968ZM8.34 13.064l7.532-4.14 7.532 4.14-7.532 4.348-7.532-4.348Z" fill="#1C78C0"/><path d="M46.988 23.388h3.3l3.364-11.208h-3.216l-1.992 7.952-2.124-7.952h-2.784l-2.144 7.952-1.972-7.952h-3.216l3.344 11.208h3.3l2.08-7.18 2.06 7.18Zm6.836-5.572c0 3.364 2.292 5.852 5.896 5.852 2.788 0 4.288-1.672 4.716-2.464l-1.952-1.48c-.32.472-1.2 1.372-2.724 1.372-1.652 0-2.852-1.072-2.916-2.572h7.892c.02-.216.02-.428.02-.644 0-3.664-1.972-5.98-5.444-5.98-3.196 0-5.488 2.528-5.488 5.916Zm3.108-1.224c.128-1.284 1.028-2.272 2.424-2.272 1.352 0 2.336.9 2.4 2.272h-4.824Zm8.94 6.796h2.788v-1.156c.3.364 1.416 1.436 3.324 1.436 3.216 0 5.488-2.42 5.488-5.872 0-3.472-2.1-5.892-5.316-5.892-1.928 0-3.044 1.072-3.324 1.456V7.892h-2.956v15.496h-.004Zm2.872-5.572c0-2.1 1.244-3.3 2.872-3.3 1.716 0 2.872 1.352 2.872 3.3 0 1.992-1.2 3.236-2.872 3.236-1.8 0-2.872-1.46-2.872-3.236Zm9.88 9.58h2.956v-5.168c.28.364 1.392 1.436 3.324 1.436 3.216 0 5.316-2.42 5.316-5.892 0-3.428-2.272-5.872-5.488-5.872-1.908 0-3.024 1.072-3.324 1.456v-1.18H78.62v15.22h.004Zm2.872-9.644c0-1.78 1.072-3.236 2.872-3.236 1.672 0 2.872 1.244 2.872 3.236 0 1.952-1.156 3.3-2.872 3.3-1.628 0-2.872-1.2-2.872-3.3Zm9.26 2.164c0 2.356 1.928 3.752 4.2 3.752 1.288 0 2.144-.384 2.724-1.008l.192.728h2.616v-7.096c0-2.508-1.072-4.392-4.672-4.392-1.716 0-3.408.644-4.416 1.328l1.116 2.016c.836-.428 1.864-.792 2.98-.792 1.308 0 2.036.664 2.036 1.652v.728c-.408-.28-1.288-.62-2.424-.62-2.616-.004-4.352 1.496-4.352 3.704Zm2.956-.088c0-.92.792-1.564 1.928-1.564s1.952.58 1.952 1.564c0 .944-.816 1.544-1.928 1.544s-1.952-.62-1.952-1.544Zm13.956 1.224c-1.864 0-3.192-1.352-3.192-3.256 0-1.8 1.18-3.28 3.088-3.28 1.264 0 2.124.62 2.616 1.072l.836-2.488a5.704 5.704 0 0 0-3.536-1.2c-3.408 0-5.96 2.508-5.96 5.916 0 3.408 2.488 5.852 5.98 5.852a5.64 5.64 0 0 0 3.492-1.2l-.792-2.42c-.496.404-1.396 1.004-2.532 1.004Zm4.436 2.336h2.956V17.6l3.752 5.788h3.472l-4.244-6.132 3.944-5.08h-3.324l-3.6 4.716v-9h-2.956v15.496Z" fill="#1A1C1C"/></svg>
